<?xml version="1.0" standalone="no"?>
<!DOCTYPE svg PUBLIC "-//W3C//DTD SVG 1.1//EN" "http://www.w3.org/Graphics/SVG/1.1/DTD/svg11.dtd" >
<svg xmlns="http://www.w3.org/2000/svg" xmlns:xlink="http://www.w3.org/1999/xlink" version="1.1">
<metadata></metadata>
<defs>
<font id="interface-regularuploadedfile" horiz-adv-x="1105" >
<font-face units-per-em="2048" ascent="1579" descent="-469" />
<missing-glyph horiz-adv-x="409" />
<glyph unicode="&#xfb01;" horiz-adv-x="1003" d="M41 848v129h145v72q0 85 28 153q27 65 74 108q45 41 107 62q61 21 129 21q112 0 179 -32t112 -71l-76 -104q-31 26 -88 55q-53 27 -125 27q-86 0 -135 -49t-49 -172v-70h233v-129h-231v-848h-160v848h-143zM705 0v977h157v-977h-157z" />
<glyph unicode="&#xfb02;" horiz-adv-x="1062" d="M41 848v129h143v35q0 101 33 173q34 74 92 119q59 46 141 67q85 22 177 22q87 0 173 -19q79 -18 122 -35v-1339h-160v1235q-22 10 -65 16q-40 6 -83 6q-59 0 -104 -11q-48 -12 -86 -39q-36 -26 -59 -77t-23 -124v-29h233v-129h-231v-848h-160v848h-143z" />
<glyph unicode="&#xfb03;" horiz-adv-x="1579" d="M41 848v129h145v72q0 90 22 159q21 67 60 107q39 41 92 59q55 19 119 19q74 0 132 -16q55 -15 96 -38l-48 -120q-29 14 -76 29q-44 14 -96 14q-29 0 -61 -9q-27 -8 -45 -31q-19 -25 -29 -66q-10 -40 -10 -109v-70h444v72q0 85 28 153q27 65 74 108q45 41 107 62 q61 21 129 21q113 0 180 -32q65 -31 111 -71l-76 -104q-31 26 -88 55q-52 27 -125 27q-86 0 -135 -49t-49 -172v-70h234v-129h-232v-848h-160v848h-440v-848h-160v848h-143zM1305 0v977h157v-977h-157z" />
<glyph unicode="&#xfb04;" horiz-adv-x="1662" d="M41 848v129h145v72q0 90 22 159q21 67 60 107q39 41 92 59q55 19 119 19q74 0 132 -16q55 -15 96 -38l-48 -120q-29 14 -76 29q-44 14 -96 14q-29 0 -61 -9q-27 -8 -45 -31q-19 -25 -29 -66q-10 -40 -10 -109v-70h442v35q0 101 33 173q34 74 92 119q59 46 141 67 q85 22 177 22q87 0 173 -19q79 -18 122 -35v-1339h-160v1235q-22 10 -65 16q-41 6 -83 6q-59 0 -104 -11q-48 -12 -86 -39q-36 -26 -59 -77t-23 -124v-29h234v-129h-232v-848h-160v848h-440v-848h-160v848h-143z" />
<glyph unicode="&#xd;" horiz-adv-x="409" />
<glyph horiz-adv-x="0" />
<glyph horiz-adv-x="0" />
<glyph unicode=" "  horiz-adv-x="409" />
<glyph unicode="&#x09;" horiz-adv-x="409" />
<glyph unicode="&#xa0;" horiz-adv-x="409" />
<glyph unicode="!" horiz-adv-x="405" d="M92 100q0 50 32 87q32 36 79 36t79 -36q31 -35 31 -87t-31 -87q-32 -36 -79 -36t-79 36q-32 37 -32 87zM127 457v909h156v-909h-156z" />
<glyph unicode="&#x22;" horiz-adv-x="653" d="M102 760v606h148v-606h-148zM403 760v606h148v-606h-148z" />
<glyph unicode="#" horiz-adv-x="1212" d="M0 496v139h344v248h-344v137h344v346h139v-346h246v346h139v-346h344v-137h-344v-248h344v-139h-344v-344h-139v344h-246v-344h-139v344h-344zM483 635h246v248h-246v-248z" />
<glyph unicode="$" d="M80 205l125 76q83 -162 278 -168v553q-66 27 -136 65q-65 35 -114 81q-48 45 -77 106t-29 139q0 75 29 136t76 102q50 43 113 67q66 25 138 29v270h131v-270q142 -11 232 -75q88 -63 133 -151l-123 -65q-38 65 -94 104q-54 38 -148 49v-471q94 -45 165 -87 q72 -43 118 -89q48 -48 70 -105t22 -136q0 -87 -28 -155q-27 -66 -79 -118q-48 -48 -119 -79q-70 -31 -149 -38v-276h-131v276q-63 0 -126 18q-65 19 -115 47q-56 32 -96 72q-42 42 -66 93zM283 1067q0 -52 16 -88q16 -38 44 -65q28 -28 64 -49q45 -26 76 -40v430 q-86 -6 -143 -54t-57 -134zM614 111q90 8 152 70q63 63 63 173q0 93 -55 152q-55 60 -160 112v-507z" />
<glyph unicode="%" horiz-adv-x="1515" d="M53 92l1299 1282l96 -98l-1294 -1290zM70 1065q0 64 24 121q23 54 67 100q43 45 98 68q57 24 122 24q66 0 123 -24q56 -24 99 -68q44 -46 67 -100q24 -57 24 -121q0 -65 -24 -122q-22 -53 -67 -99q-43 -44 -99 -68q-57 -24 -123 -24t-123 24q-54 23 -97 68q-45 46 -67 99 q-24 57 -24 122zM201 1067q0 -39 14 -71q14 -33 37 -60q26 -26 57 -40q33 -15 70 -15t70 15q32 15 57 41t39 59q14 32 14 71t-14 71q-14 33 -39 59t-57 41q-33 15 -70 15t-70 -15q-30 -14 -56 -41q-23 -24 -38 -59q-14 -32 -14 -71zM838 299q0 64 24 121q23 54 67 100 q43 45 98 68q57 24 122 24q66 0 123 -24q56 -24 99 -68q44 -46 67 -100q24 -57 24 -121q0 -65 -24 -122q-22 -53 -67 -99q-43 -44 -99 -68q-57 -24 -123 -24t-123 24q-54 23 -97 68q-45 46 -67 99q-24 57 -24 122zM969 301q0 -39 14 -71q14 -33 37 -60q26 -26 57 -40 q33 -15 70 -15t70 15q32 15 57 41t39 59q14 32 14 71t-14 71q-14 33 -39 59t-57 41q-33 15 -70 15t-70 -15q-30 -14 -56 -41q-23 -24 -38 -59q-14 -32 -14 -71z" />
<glyph unicode="&#x26;" horiz-adv-x="1257" d="M86 373q0 142 76 261q77 121 248 200l-48 69q-34 53 -55 96q-24 49 -24 109q0 65 23 112q24 50 65 85t95 53t114 18q59 0 109 -17q54 -19 91 -51q40 -35 63 -83q23 -47 23 -111q0 -110 -66 -191q-65 -80 -177 -130l227 -308l61 119q26 51 64 114q35 58 68 100 q36 47 77 77l78 -115q-80 -67 -140 -181l-118 -228l264 -371h-170l-170 236q-38 -61 -71 -100q-38 -45 -87 -82q-45 -34 -107 -56q-59 -21 -132 -21q-91 0 -161 33q-71 33 -120 88q-48 54 -74 126t-26 149zM238 371q0 -53 16 -98q17 -47 46 -82q30 -36 73 -57t98 -21 q51 0 93 18q40 17 79 50q38 32 68 74q31 44 59 89l-283 385q-129 -66 -189 -157t-60 -201zM434 1118q0 -35 22 -76q17 -32 44 -73l49 -72q76 33 126 86t50 131q0 67 -43 107q-44 41 -104 41q-63 0 -104 -41q-40 -40 -40 -103z" />
<glyph unicode="'" horiz-adv-x="348" d="M102 760v606h144v-606h-144z" />
<glyph unicode="(" horiz-adv-x="540" d="M90 698q0 146 31 275q30 123 86 225q55 100 132 174q78 75 167 121l47 -100q-66 -49 -121 -115q-54 -64 -95 -151q-41 -86 -63 -191q-22 -104 -22 -238q0 -263 85 -430q85 -166 216 -266l-47 -100q-91 50 -167 123q-77 73 -132 174q-57 103 -86 224q-31 129 -31 275z" />
<glyph unicode=")" horiz-adv-x="540" d="M-12 2q64 48 121 116q53 63 95 152q38 81 62 193q23 109 23 235q0 129 -23 238t-62 191q-41 87 -95 151q-55 66 -121 115l47 100q89 -46 167 -121q76 -74 132 -174q56 -102 86 -225q31 -129 31 -275t-31 -275q-29 -121 -86 -224q-56 -101 -132 -174t-167 -123z" />
<glyph unicode="*" horiz-adv-x="870" d="M72 924l260 172l-260 178l63 102l240 -164v273h117v-273l243 162l64 -98l-262 -178l260 -178l-58 -107l-247 168v-287h-117v287l-246 -166z" />
<glyph unicode="+" d="M70 608v144h411v448h144v-448h411v-144h-411v-450h-144v450h-411z" />
<glyph unicode="," horiz-adv-x="417" d="M27 -135q36 10 83 42q46 31 62 68q-25 11 -46 42q-22 33 -22 87q0 51 31 91q29 38 78 38q51 0 81 -39q32 -41 32 -106q0 -50 -26 -97q-24 -43 -67 -85q-43 -41 -90 -67q-51 -28 -98 -42z" />
<glyph unicode="-" horiz-adv-x="628" d="M92 461v145h445v-145h-445z" />
<glyph unicode="." horiz-adv-x="405" d="M92 100q0 50 32 87q32 36 79 36t79 -36q31 -35 31 -87t-31 -87q-32 -36 -79 -36t-79 36q-32 37 -32 87z" />
<glyph unicode="/" horiz-adv-x="983" d="M0 27l862 1525l121 -67l-858 -1532z" />
<glyph unicode="0" d="M66 676q0 133 28 257q28 125 89 225t152 160q92 60 218 60q125 0 217 -60q93 -61 153 -160q61 -100 89 -225q28 -124 28 -257q0 -135 -29 -257q-31 -129 -89 -225q-60 -99 -152 -161t-217 -62q-127 0 -219 62q-91 62 -151 161q-61 100 -89 225q-28 124 -28 257zM238 678 q0 -102 18 -203q18 -102 55 -180q39 -79 99 -129q59 -49 143 -49q82 0 141 49q61 50 98 129q38 81 56 180q18 101 18 203q0 108 -17 202q-19 102 -56 177q-39 78 -99 126t-141 48q-83 0 -143 -48t-99 -126q-37 -75 -56 -177q-17 -94 -17 -202z" />
<glyph unicode="1" d="M162 1081l409 271h144v-1352h-166v1165l-307 -196z" />
<glyph unicode="2" d="M111 1104q72 131 180 203q107 71 264 71q91 0 159 -26q72 -28 121 -75q50 -48 77 -115q28 -68 28 -146q0 -132 -66 -251q-69 -124 -155 -233q-65 -86 -166 -201l-172 -192h594v-139h-821v96l215 248q110 128 188 229l88 118q36 49 66 105q26 47 40 98q13 46 13 101 q0 116 -61 177t-158 61q-187 0 -305 -205z" />
<glyph unicode="3" d="M78 217l129 80q52 -93 132 -137q79 -43 161 -43q54 0 107 18q52 18 92 52t64 82q23 46 23 108q0 63 -24 111q-24 47 -65 81q-41 33 -94 51q-48 16 -111 21v123q54 5 100 20q47 16 88 47q38 29 61 74q23 44 23 101q0 51 -21 93t-55 70q-35 29 -80 44q-48 16 -94 16 q-87 0 -157 -46t-109 -124l-129 80q60 117 172 178t241 61q80 0 151 -25q72 -25 129 -72q54 -44 90 -113q34 -65 34 -148q0 -120 -56 -198t-143 -113q44 -17 85 -45q42 -28 71 -66q30 -39 48 -93q17 -51 17 -126q0 -100 -38 -173t-103 -127q-62 -52 -145 -79 q-82 -27 -168 -27q-64 0 -125 15t-118 45q-55 29 -103 77q-49 49 -80 107z" />
<glyph unicode="4" d="M80 420v145l672 785h104v-793h148v-137h-148v-420h-154v420h-622zM254 557h448v516z" />
<glyph unicode="5" d="M131 184l127 82q84 -145 281 -145q130 0 210 76t80 219q0 158 -126 244q-125 85 -355 85h-149v605h727v-140h-574v-325h17q124 0 241 -25q113 -24 196 -80q84 -56 131 -145q48 -90 48 -221q0 -107 -35 -191q-34 -81 -96 -137t-143 -84q-84 -29 -174 -29q-129 0 -238 53 t-168 158z" />
<glyph unicode="6" d="M139 514q0 166 48 311q48 144 140 258q91 113 219 189q123 74 288 102l32 -129q-89 -17 -170 -55q-80 -38 -150 -97q-68 -58 -120 -131q-51 -72 -80 -157q49 32 117 55q63 21 135 21q97 0 171 -37t126 -101q51 -63 78 -145q26 -79 26 -174q0 -93 -28 -174 q-28 -82 -83 -144q-53 -61 -132 -97q-78 -36 -174 -36q-118 0 -201 46q-86 48 -137 122q-55 79 -79 173q-26 99 -26 200zM307 514q0 -62 14 -137q13 -70 45 -131q31 -60 85 -98q52 -37 133 -37q65 0 111 26q48 27 80 71q32 45 47 99q16 59 16 113q0 64 -18 122 q-19 62 -51 102q-36 46 -85 70q-50 25 -119 25q-73 0 -135 -22q-62 -23 -111 -60q-12 -72 -12 -143z" />
<glyph unicode="7" d="M78 1210v140h936v-111l-514 -1239h-172l499 1210h-749z" />
<glyph unicode="8" d="M123 371q0 106 49 194q50 90 147 140q-80 53 -128 135t-48 174t36 160q35 66 94 113q58 46 131 69q70 22 149 22q78 0 148 -22q71 -22 130 -67t93 -110t34 -155q0 -99 -46 -179q-47 -82 -124 -138q94 -46 144 -139q49 -91 49 -195q0 -101 -37 -175q-38 -77 -97 -125 q-63 -52 -137 -75q-80 -25 -157 -25t-157 25q-73 23 -138 75q-59 48 -98 125q-37 74 -37 173zM281 373q0 -65 24 -115q24 -47 64 -79q39 -32 88 -48q48 -16 98 -16q49 0 97 15t86 47q37 31 62 79q23 45 23 113q0 65 -23 112q-24 49 -63 84q-40 36 -88 53q-52 19 -98 19 t-97 -19q-49 -18 -87 -52q-40 -35 -63 -83q-23 -47 -23 -110zM303 1014q0 -60 21 -107q24 -47 58 -76q38 -31 80 -46q44 -15 89 -15q46 0 90 16q43 16 80 48q35 30 57 75q23 46 23 105q0 54 -22 100q-21 44 -57 72t-80 42q-42 13 -89 13q-48 0 -90 -14q-46 -15 -80 -42 t-57 -71t-23 -100z" />
<glyph unicode="9" d="M129 926q0 92 29 176q28 80 83 143q53 60 131 97q76 36 173 36q113 0 196 -46q86 -47 139 -123q54 -77 81 -174q26 -94 26 -199q0 -165 -51 -309t-144 -258q-89 -109 -225 -189q-129 -75 -291 -103l-32 129q92 21 176 60q83 39 152 94q70 57 122 126q55 74 84 155 q-55 -36 -114 -55q-60 -19 -136 -19q-96 0 -170 38t-125 102q-49 62 -77 147q-27 82 -27 172zM285 930q0 -69 17 -124q19 -63 51 -104q34 -44 86 -71t122 -27q64 0 127 23q66 25 117 63q12 69 12 148q0 66 -12 136q-12 68 -44 130q-30 58 -85 97q-53 38 -133 38 q-66 0 -114 -27q-49 -28 -80 -70q-31 -43 -48 -100q-16 -54 -16 -112z" />
<glyph unicode=":" horiz-adv-x="405" d="M92 100q0 50 32 87q32 36 79 36t79 -36q31 -35 31 -87t-31 -87q-32 -36 -79 -36t-79 36q-32 37 -32 87zM92 854q0 50 32 87q31 36 79 36q47 0 79 -36q31 -35 31 -87q0 -54 -31 -89q-32 -36 -79 -36t-79 36q-32 37 -32 89z" />
<glyph unicode=";" horiz-adv-x="417" d="M27 -135q36 10 83 42q46 31 62 68q-25 11 -46 42q-22 33 -22 87q0 51 31 91q29 38 78 38q51 0 81 -39q32 -41 32 -106q0 -50 -26 -97q-24 -43 -67 -85q-43 -41 -90 -67q-51 -28 -98 -42zM100 854q0 50 32 87q32 36 79 36q45 0 77 -36q31 -35 31 -87q0 -54 -31 -89 q-32 -36 -77 -36q-47 0 -79 36q-32 37 -32 89z" />
<glyph unicode="&#x3c;" d="M111 623v118l841 324l54 -141l-635 -238l661 -256l-57 -147z" />
<glyph unicode="=" d="M70 303v143h966v-143h-966zM70 764v141h966v-141h-966z" />
<glyph unicode="&#x3e;" d="M111 430l661 256l-635 238l53 141l842 -324v-118l-864 -340z" />
<glyph unicode="?" horiz-adv-x="798" d="M-4 1139q29 46 63 86q36 42 85 77q47 34 111 55q63 21 140 21q185 0 278 -95t93 -261q0 -91 -44 -167q-41 -71 -104 -140l-76 -87q-35 -40 -52 -66q-20 -30 -27 -55q-8 -27 -8 -56v-74h-152v86q0 96 47 166q43 64 105 129l62 68q25 29 47 63q19 30 30 65q10 33 10 78 q0 105 -55 160t-160 55q-93 0 -162 -54q-72 -56 -123 -132zM268 100q0 50 32 87q32 36 79 36q48 0 79 -36q31 -35 31 -87t-31 -87q-31 -36 -79 -36q-47 0 -79 36q-32 37 -32 87z" />
<glyph unicode="@" horiz-adv-x="1603" d="M111 506q0 213 49 376q49 164 145 278q94 112 239 173q142 60 330 60q157 0 263 -38q102 -36 166 -99q62 -60 86 -134t24 -147v-1004q0 -71 36 -105q35 -34 99 -34q48 0 76 12q20 8 51 25l43 -121q-27 -15 -78 -30t-120 -15q-112 0 -188 65q-75 64 -75 203v156 q-44 -34 -115 -58q-70 -24 -149 -24q-83 0 -153 32q-71 32 -121 90q-52 60 -80 139q-29 82 -29 179q0 99 30 178q29 78 81 134q50 54 121 85q67 29 151 29q86 0 152 -21q63 -20 112 -50v118q0 148 -93 224q-91 75 -290 75q-158 0 -271 -52q-115 -53 -186 -149 q-74 -101 -108 -238q-35 -143 -35 -318q0 -71 16 -151q13 -67 40 -142q23 -64 56 -124q30 -54 65 -97l-127 -90q-42 49 -77 110q-41 73 -69 146q-32 85 -49 170q-18 90 -18 184zM776 485q0 -61 16 -120q15 -56 44 -97q28 -40 69 -64t94 -24q87 0 148 21q63 21 108 55v449 q-42 21 -100 43q-53 20 -143 20q-112 0 -174 -74t-62 -209z" />
<glyph unicode="A" horiz-adv-x="1163" d="M0 0l526 1366h101l536 -1366h-178l-162 422h-495l-156 -422h-172zM381 567h389l-199 523z" />
<glyph unicode="B" horiz-adv-x="1099" d="M166 0v1366h389q205 0 309 -94q105 -94 105 -254q0 -132 -75 -202q-74 -70 -192 -91q58 -6 118 -27q65 -23 109 -60q51 -43 79 -102q30 -63 30 -155q0 -91 -29 -159q-30 -71 -82 -120q-50 -47 -126 -75q-73 -27 -160 -27h-475zM330 141h303q104 0 168 61q63 60 63 183 q0 260 -317 260h-217v-504zM330 786h211q123 0 189 66q67 67 67 172q0 201 -236 201h-231v-439z" />
<glyph unicode="C" horiz-adv-x="1165" d="M100 678q0 189 47 327q46 135 124 222q77 85 174 126q96 40 198 40q156 0 277 -76q120 -75 180 -205l-133 -80q-18 38 -48 75q-32 40 -70 68q-40 29 -88 49q-47 19 -104 19q-179 0 -281 -147t-102 -420q0 -130 31 -237q29 -100 84 -174q51 -69 126 -106q72 -36 157 -36 q60 0 105 16t84 44q36 26 68 66q28 35 54 79l125 -80q-25 -46 -66 -98q-39 -50 -92 -89q-51 -38 -123 -63t-157 -25q-123 0 -225 40q-105 41 -180 125q-79 88 -121 218q-44 135 -44 322z" />
<glyph unicode="D" horiz-adv-x="1269" d="M166 0v1366h352q84 0 166 -13q87 -14 160 -48q70 -33 135 -90q62 -54 105 -130q45 -80 70 -171q26 -96 26 -212q0 -143 -33 -257t-91 -197t-138 -139q-77 -54 -173 -82q-47 -15 -111 -21t-116 -6h-352zM330 141h168q39 0 102 5q54 4 105 24q62 27 115 70q56 45 96 105 q42 63 66 149q24 85 24 200q0 177 -55 287q-55 109 -148 170q-58 38 -140 56q-81 18 -157 18h-176v-1084z" />
<glyph unicode="E" horiz-adv-x="1052" d="M166 0v1366h797v-141h-633v-439h452v-141h-454v-504h684v-141h-846z" />
<glyph unicode="F" horiz-adv-x="944" d="M166 0v1366h774v-141h-610v-461h450v-141h-452v-623h-162z" />
<glyph unicode="G" horiz-adv-x="1222" d="M100 678q0 194 46 328q47 136 123 221t176 126q98 40 206 40q89 0 162 -19q70 -18 123 -53q54 -35 92 -84q42 -53 70 -111l-131 -79q-46 90 -120 146q-72 54 -196 54q-71 0 -140 -33q-68 -33 -121 -102q-52 -68 -84 -178t-32 -258q0 -133 33 -238t89 -176 q56 -70 131 -108q74 -37 159 -37q98 0 160 11q71 13 110 26v356h-225v143h389v-602q-10 -4 -76 -26q-37 -12 -102 -26q-42 -9 -123 -18q-70 -8 -135 -8q-122 0 -226 40q-109 42 -186 125q-80 86 -126 218t-46 322z" />
<glyph unicode="H" horiz-adv-x="1341" d="M166 0v1366h164v-592h684v592h162v-1366h-162v629h-684v-629h-164z" />
<glyph unicode="I" horiz-adv-x="495" d="M166 0v1366h164v-1366h-164z" />
<glyph unicode="J" horiz-adv-x="489" d="M-80 -137q125 21 188 71q64 51 64 150v1282h164v-1278q0 -168 -105 -255q-104 -86 -282 -107z" />
<glyph unicode="K" horiz-adv-x="1150" d="M166 0v1366h164v-600l588 600h194l-526 -537l555 -829h-197l-473 711l-141 -146v-565h-164z" />
<glyph unicode="L" horiz-adv-x="1003" d="M166 0v1366h164v-1225h633v-141h-797z" />
<glyph unicode="M" horiz-adv-x="1521" d="M166 0v1366h192l398 -1055l409 1055h191v-1366h-158v1042l-424 -1065h-33l-415 1063v-1040h-160z" />
<glyph unicode="N" horiz-adv-x="1347" d="M166 0v1366h166l688 -1018v1018h162v-1366h-121l-733 1083v-1083h-162z" />
<glyph unicode="O" horiz-adv-x="1353" d="M100 684q0 134 34 260t105 227t179 161q110 61 260 61q148 0 258 -61q108 -60 179 -161t105 -227q33 -122 33 -260q0 -139 -33 -261q-35 -128 -105 -227q-71 -99 -179 -161q-109 -62 -258 -62q-151 0 -260 62q-108 62 -179 161q-70 99 -105 227q-34 126 -34 261zM272 684 q0 -102 25 -208q24 -100 74 -181q52 -81 127 -128q76 -48 180 -48t180 48q74 47 125 128q50 81 74 181q24 102 24 208q0 108 -23 206q-24 102 -73 181q-50 80 -126 128q-77 48 -181 48t-181 -48q-78 -49 -127 -128q-50 -81 -74 -181q-24 -102 -24 -206z" />
<glyph unicode="P" horiz-adv-x="1114" d="M166 0v1366h426q236 0 349 -104q114 -105 114 -310q0 -199 -120 -301t-349 -102h-256v-549h-164zM330 692h268q124 0 203 62q78 62 78 202q0 142 -74 205q-75 64 -209 64h-266v-533z" />
<glyph unicode="Q" horiz-adv-x="1353" d="M100 684q0 134 34 260t105 227t179 161q110 61 260 61q148 0 258 -61q108 -60 179 -161t105 -227q33 -122 33 -260q0 -125 -28 -241q-28 -118 -87 -214q-58 -95 -151 -162q-91 -66 -217 -87q23 -60 91 -90q68 -29 200 -37l-19 -136q-85 5 -165 22q-72 15 -126 45t-95 77 q-39 45 -70 119q-125 18 -218 85q-91 66 -151 163t-88 215q-29 121 -29 241zM272 684q0 -102 25 -208q24 -100 74 -181q52 -81 127 -128q76 -48 180 -48t180 48q74 47 125 128q50 81 74 181q24 102 24 208q0 108 -23 206q-24 102 -73 181q-50 80 -126 128q-77 48 -181 48 t-181 -48q-78 -49 -127 -128q-50 -81 -74 -181q-24 -102 -24 -206z" />
<glyph unicode="R" horiz-adv-x="1128" d="M166 0v1366h438q230 0 338 -102q109 -103 109 -271q0 -89 -26 -156t-72 -113q-48 -48 -108 -75q-65 -30 -134 -41l372 -608h-186l-369 598h-198v-598h-164zM330 739h264q285 0 285 254q0 116 -70 174t-201 58h-278v-486z" />
<glyph unicode="S" horiz-adv-x="1056" d="M61 197l129 96q60 -85 156 -129q95 -43 197 -43q55 0 101 13q47 13 84 41q35 26 57 73t22 106q0 58 -27 102q-29 47 -71 79q-45 35 -103 62q-51 24 -119 54l-137 63q-67 31 -122 77q-54 45 -88 104t-34 145q0 89 36 155q37 67 97 111q61 44 137 65q80 22 161 22 q126 0 247 -52t193 -161l-125 -99q-52 73 -136 120q-82 46 -181 46q-122 0 -188 -54t-66 -144q0 -53 23 -87q24 -36 66 -66q40 -29 101 -56l133 -60q66 -29 137 -65q67 -34 121 -82q52 -46 86 -111q33 -63 33 -151q0 -105 -36 -181q-35 -74 -97 -124t-142 -72 q-83 -23 -174 -23q-64 0 -138 16q-65 14 -131 44q-63 29 -115 70q-50 40 -87 96z" />
<glyph unicode="T" horiz-adv-x="1046" d="M18 1225v141h1010v-141h-424v-1225h-162v1225h-424z" />
<glyph unicode="U" horiz-adv-x="1325" d="M158 457v909h164v-879q0 -174 90 -271t250 -97q161 0 251 94q91 96 91 274v879h163v-909q0 -121 -42 -211q-43 -92 -112 -151q-72 -61 -163 -91q-95 -31 -193 -31q-102 0 -197 31q-90 29 -159 91q-67 59 -105 151q-38 91 -38 211z" />
<glyph unicode="V" horiz-adv-x="1136" d="M0 1366h180l395 -1040l388 1040h174l-519 -1366h-96z" />
<glyph unicode="W" horiz-adv-x="1538" d="M0 1366h166l252 -965l307 965h86l311 -965l248 965h168l-344 -1366h-98l-328 1018l-326 -1018h-98z" />
<glyph unicode="X" horiz-adv-x="1056" d="M0 0l424 700l-387 666h199l292 -537l299 537h189l-389 -653l430 -713h-205l-328 586l-336 -586h-188z" />
<glyph unicode="Y" horiz-adv-x="1112" d="M0 1366h186l365 -553l383 553h178l-483 -709v-657h-164v655z" />
<glyph unicode="Z" horiz-adv-x="1095" d="M78 0v152l770 1073h-735v141h884v-176l-749 -1049h780v-141h-950z" />
<glyph unicode="[" horiz-adv-x="454" d="M143 -293v1800h303v-129h-155v-1540h155v-131h-303z" />
<glyph unicode="\" horiz-adv-x="968" d="M0 1485l133 74l836 -1498l-129 -84z" />
<glyph unicode="]" horiz-adv-x="454" d="M8 -162h156v1540h-156v129h303v-1800h-303v131z" />
<glyph unicode="^" horiz-adv-x="1028" d="M125 651l326 719h118l334 -690l-139 -59l-256 526l-238 -549z" />
<glyph unicode="_" horiz-adv-x="1038" d="M0 -328h1038v-123h-1038v123z" />
<glyph unicode="`" horiz-adv-x="905" d="M229 1368l105 107l342 -285l-74 -76z" />
<glyph unicode="a" horiz-adv-x="962" d="M78 283q0 106 56 172t142 107q82 39 191 56q108 17 203 17v12q0 123 -53 176q-54 54 -150 54q-67 0 -124 -30q-56 -29 -95 -79l-111 78q61 81 141 118t203 37q165 0 255 -83q91 -84 91 -281v-637h-143l-8 84q-52 -52 -118 -79q-68 -28 -146 -28q-62 0 -124 20 q-61 20 -107 57q-45 36 -75 96q-28 56 -28 133zM238 281q0 -47 18 -80t46 -55q27 -21 62 -30q38 -10 66 -10q72 0 132 30q62 31 108 71v303q-54 -1 -144 -10q-73 -7 -140 -32q-64 -24 -106 -69t-42 -118z" />
<glyph unicode="b" horiz-adv-x="1073" d="M141 51v1315h158v-420q65 29 122 41q59 12 116 12q97 0 176 -33q81 -34 140 -99q57 -63 92 -159q34 -93 34 -221q0 -118 -37 -211q-38 -96 -102 -160q-67 -67 -155 -103t-193 -36q-114 0 -202 24q-95 26 -149 50zM299 139q34 -14 84 -26q47 -11 86 -11q80 0 148 28 q65 27 113 79q47 52 71 123q24 72 24 160t-24 158t-68 120t-100 75t-125 25q-51 0 -102 -13q-56 -14 -107 -48v-670z" />
<glyph unicode="c" horiz-adv-x="970" d="M94 485q0 137 39 236q38 96 103 161q62 62 143 91q78 28 160 28q81 0 144 -24t107 -62q46 -40 71 -77q29 -43 40 -74l-117 -74q-43 98 -108 141t-137 43q-57 0 -107 -25q-52 -26 -92 -75q-43 -53 -66 -121q-24 -72 -24 -164q0 -91 24 -163q23 -69 67 -121q43 -50 98 -75 q58 -26 120 -26q71 0 138 41q65 40 110 134l111 -70q-56 -117 -157 -175q-99 -57 -210 -57q-84 0 -169 31q-82 30 -146 94t-103 159t-39 224z" />
<glyph unicode="d" horiz-adv-x="1073" d="M94 498q0 94 30 185q30 92 88 162t146 113q87 43 205 43q79 0 127 -11q64 -15 90 -25v401h158v-1366h-145l-13 80q-52 -55 -115 -79t-137 -24q-105 0 -185 40q-79 40 -136 110q-55 68 -84 165q-29 96 -29 206zM250 489q0 -81 18 -152q17 -68 57 -122q38 -51 94 -81 q57 -30 134 -30q60 0 121 26q60 25 106 85v612q-19 12 -33 17q-18 6 -49 15q-19 5 -55 11q-32 5 -55 5q-87 0 -150 -33t-105 -87q-41 -53 -63 -124q-20 -66 -20 -142z" />
<glyph unicode="e" horiz-adv-x="1040" d="M94 494q0 115 32 209q32 96 88 160q59 68 137 103q79 35 179 35q112 0 190 -36q81 -38 134 -104t80 -160q27 -93 27 -203h-711q0 -184 84 -289t244 -105q91 0 155 46q66 47 103 110l104 -70q-53 -92 -138 -152q-87 -61 -229 -61q-111 0 -198 34q-88 34 -151 99 q-61 62 -96 160q-34 95 -34 224zM264 623h518q-2 63 -24 111q-22 47 -58 80t-79 47q-48 16 -91 16q-98 0 -169 -59q-70 -58 -97 -195z" />
<glyph unicode="f" horiz-adv-x="600" d="M41 848v129h145v72q0 90 22 159q21 67 60 107q39 41 92 59q55 19 119 19q74 0 132 -16q55 -15 96 -38l-48 -120q-29 14 -76 29q-44 14 -96 14q-29 0 -61 -9q-27 -8 -45 -31q-19 -25 -29 -66q-10 -40 -10 -109v-70h233v-129h-231v-848h-160v848h-143z" />
<glyph unicode="g" horiz-adv-x="1064" d="M82 -117q0 158 143 234q-37 16 -61 45q-25 30 -25 74q0 56 44 94q42 36 110 53q-23 12 -56 35q-35 25 -60 57q-29 37 -46 81q-18 46 -18 108q0 88 35 149q37 65 96 106q58 41 134 62q71 20 152 20q66 0 120 -11q60 -12 112 -36l145 146l101 -92l-134 -134q38 -40 60 -93 q22 -51 22 -117q0 -88 -35 -151t-96 -107q-59 -43 -137 -64q-74 -20 -160 -20q-30 0 -66 4q-52 6 -63 8q-33 -5 -61 -22q-29 -18 -29 -46q0 -33 48 -48q50 -16 175 -17q120 -1 218 -17q95 -15 159 -47q66 -33 100 -89q33 -55 33 -142q0 -81 -36 -139q-37 -59 -101 -100 q-60 -38 -148 -60q-85 -21 -179 -21q-236 0 -366 72t-130 225zM223 -102q0 -48 27 -82q27 -35 74 -59q46 -24 111 -36t143 -12q142 0 230 51q89 51 89 138q0 44 -16 73q-17 31 -59 52q-38 19 -112 30q-78 12 -180 13q-137 5 -188 12q-54 -28 -86 -70q-33 -44 -33 -110z M268 664q0 -42 17 -82q19 -41 52 -70q37 -32 81 -49q49 -19 106 -19q50 0 98 12t88 37q41 26 64 68q25 45 25 105q0 50 -23 91q-22 40 -59 65q-38 26 -85 39q-46 13 -100 13q-51 0 -97 -13q-47 -13 -85 -39q-37 -25 -59 -65q-23 -41 -23 -93z" />
<glyph unicode="h" horiz-adv-x="1103" d="M141 0v1366h158v-467q60 44 135 73q74 29 170 29q200 0 282 -100q83 -101 83 -293v-608h-160v610q0 136 -55 200t-179 64q-80 0 -150 -35q-77 -38 -126 -75v-764h-158z" />
<glyph unicode="i" horiz-adv-x="442" d="M117 1249q0 47 30 82t74 35t74 -35q31 -36 31 -82q0 -47 -31 -83q-29 -33 -74 -33t-74 33q-30 35 -30 83zM141 0v977h160v-977h-160z" />
<glyph unicode="j" horiz-adv-x="438" d="M-8 -291q36 26 64 54q27 27 44 61q18 36 25 75q8 45 8 97v981h160v-981q0 -158 -60 -249t-163 -150zM109 1249q0 47 30 82t74 35t74 -35t30 -82q0 -48 -30 -83q-29 -33 -74 -33t-74 33q-30 35 -30 83z" />
<glyph unicode="k" horiz-adv-x="976" d="M141 0v1366h158v-760l395 371h201l-334 -315l420 -662h-182l-355 553l-145 -133v-420h-158z" />
<glyph unicode="l" horiz-adv-x="440" d="M141 0v1366h158v-1366h-158z" />
<glyph unicode="m" horiz-adv-x="1695" d="M141 0v977h146l10 -78q50 35 127 69q75 33 170 33q81 0 150 -26q74 -28 122 -98q60 50 150 88q85 36 192 36q102 0 171 -27q68 -27 109 -80q39 -51 56 -129q17 -79 17 -175v-590h-160v610q0 122 -47 192q-46 68 -172 68q-45 0 -82 -11q-45 -13 -77 -28q-40 -18 -66 -34 q-23 -14 -50 -35q12 -39 16 -73q5 -42 5 -99v-590h-158v610q0 54 -9 101t-33 83q-24 35 -62 56q-37 20 -101 20q-73 0 -142 -35q-76 -39 -124 -73v-762h-158z" />
<glyph unicode="n" horiz-adv-x="1107" d="M141 0v977h146l10 -78q62 47 140 74q80 28 169 28q202 0 284 -99q83 -100 83 -294v-608h-158v612q0 125 -55 193q-56 69 -180 69q-81 0 -153 -33q-76 -35 -128 -75v-766h-158z" />
<glyph unicode="o" horiz-adv-x="1097" d="M94 494q0 92 28 187q26 89 85 163q55 70 142 114q85 43 200 43q113 0 199 -44q85 -43 142 -115q56 -71 85 -164t29 -189q0 -95 -29 -188t-85 -164q-57 -72 -142 -115q-88 -45 -199 -45q-114 0 -199 43q-83 44 -141 118q-57 72 -86 166q-29 95 -29 190zM250 494 q0 -75 18 -144t56 -125q40 -54 95 -87q56 -34 130 -34q76 0 132 34q57 34 94 88q38 55 56 124q19 73 19 142q0 68 -19 141q-18 69 -56 124q-38 54 -94 87q-57 33 -132 33t-132 -33q-54 -32 -93 -87q-38 -55 -56 -123q-18 -69 -18 -140z" />
<glyph unicode="p" horiz-adv-x="1073" d="M141 -387v1364h144l12 -72q64 52 134 74q69 22 149 22q108 0 184 -40q74 -39 124 -111q48 -69 69 -161q22 -96 22 -189q0 -120 -37 -215q-38 -98 -101 -165q-63 -68 -155 -106q-89 -37 -194 -37q-115 0 -193 33v-397h-158zM299 147q20 -15 66 -29q45 -14 96 -14 q78 0 144 27q68 28 115 76q48 49 75 122q26 69 26 165q0 72 -14 136q-16 72 -47 123q-32 53 -87 88q-52 33 -134 33q-67 0 -127 -28t-113 -76v-623z" />
<glyph unicode="q" horiz-adv-x="1079" d="M94 489q0 113 38 209q37 93 106 162q68 68 161 105q91 36 209 36q72 0 170 -8q94 -8 160 -18v-1362h-158v418q-50 -26 -107 -40q-64 -16 -128 -16q-93 0 -176 36q-81 35 -144 103q-61 66 -96 161q-35 96 -35 214zM252 485q0 -84 27 -153q28 -73 70 -120q45 -52 104 -78 q62 -28 127 -28q55 0 110 19q51 17 90 41v694q-24 5 -73 10q-40 4 -97 4q-66 0 -130 -24t-114 -74q-51 -51 -82 -122q-32 -73 -32 -169z" />
<glyph unicode="r" horiz-adv-x="659" d="M141 0v977h144l12 -86q42 43 100 76q61 34 125 34q46 0 83 -6q39 -6 59 -12l-29 -145q-50 22 -129 22q-60 0 -114 -33q-56 -34 -93 -67v-760h-158z" />
<glyph unicode="s" horiz-adv-x="843" d="M72 166l123 76q34 -65 89 -102q54 -36 146 -36q201 0 201 144q0 42 -14 73q-13 29 -43 53q-31 25 -76 45q-53 24 -115 46q-70 23 -125 52q-49 26 -84 61q-33 33 -48 73q-15 41 -15 97q0 118 87 186q86 67 230 67q122 0 199 -39q79 -40 135 -114l-111 -88q-40 49 -96 82 q-54 32 -125 32q-88 0 -128 -33q-42 -35 -42 -83q0 -33 11 -55q12 -24 40 -43q25 -17 75 -38q54 -23 118 -44q136 -47 205 -119t69 -191q0 -72 -26 -124q-27 -54 -73 -91q-44 -36 -110 -56q-65 -20 -139 -20q-142 0 -227 54q-81 51 -131 135z" />
<glyph unicode="t" horiz-adv-x="671" d="M39 848v129h168v266h158v-266h256v-129h-259v-625q0 -70 28 -95q27 -24 71 -24q38 0 74 17q35 17 63 39l61 -107q-45 -33 -93 -55q-46 -21 -130 -21q-110 0 -170 57q-59 56 -59 173v641h-168z" />
<glyph unicode="u" horiz-adv-x="1101" d="M135 358v619h158v-627q0 -129 59 -187q61 -59 176 -59q75 0 151 32q75 31 122 77v764h160v-977h-146l-10 76q-60 -45 -129 -72t-174 -27q-193 0 -280 95q-87 94 -87 286z" />
<glyph unicode="v" horiz-adv-x="913" d="M0 977h170l291 -797l293 797h159l-366 -977h-180z" />
<glyph unicode="w" horiz-adv-x="1353" d="M0 977h170l221 -735l240 735h90l242 -735l221 735h170l-324 -977h-123l-231 705l-230 -705h-122z" />
<glyph unicode="x" horiz-adv-x="825" d="M0 0l328 498l-314 479h179l221 -350l223 350h168l-311 -475l323 -502h-170l-239 365l-238 -365h-170z" />
<glyph unicode="y" horiz-adv-x="927" d="M0 977h180l289 -752l289 752h170l-500 -1235q-38 -90 -103 -123q-66 -33 -139 -33q-45 0 -99 14q-56 14 -81 25l45 117q23 -8 57 -15q37 -8 68 -8q46 0 74 23q27 22 55 88l80 195z" />
<glyph unicode="z" horiz-adv-x="925" d="M82 0v154l582 694h-560v129h721v-162l-583 -686h598v-129h-758z" />
<glyph unicode="{" horiz-adv-x="487" d="M39 631v108q76 10 124 57q48 46 48 146v305q0 140 67 193q66 52 201 57l13 -111q-51 -2 -77 -13q-28 -12 -42 -32q-15 -21 -18 -51t-3 -73v-275q0 -110 -35 -169t-127 -89q93 -29 127 -87q35 -59 35 -169v-276q0 -41 3 -71q3 -29 18 -49t42 -30t77 -12l-13 -117 q-134 1 -201 56t-67 194v305q0 100 -48 146q-48 47 -124 57z" />
<glyph unicode="|" horiz-adv-x="434" d="M143 -152v1663h148v-1663h-148z" />
<glyph unicode="}" horiz-adv-x="489" d="M-2 -10q50 2 77 12t42 30q14 18 17 49q3 30 3 71v276q0 110 35 169q34 58 127 87q-92 30 -127 89t-35 169v275q0 43 -3 73q-3 32 -17 51q-14 20 -42 32q-26 11 -77 13l12 111q136 -5 202 -57q67 -53 67 -193v-305q0 -100 48 -146q48 -47 124 -57v-108q-76 -10 -124 -57 q-48 -46 -48 -146v-305q0 -139 -67 -194q-67 -54 -202 -56z" />
<glyph unicode="~" horiz-adv-x="911" d="M-4 1038q17 138 88 215q72 78 201 78q67 0 110 -18q42 -17 84 -47q23 -15 42 -30l38 -30q10 -8 37 -24q19 -11 35 -11q82 0 113 48q31 47 38 116h133q-5 -84 -30 -137q-27 -58 -66 -95q-40 -38 -86 -56q-49 -19 -92 -19q-59 0 -103 19q-43 18 -77 45l-48 37 q-17 15 -40 30q-17 14 -40 24q-21 9 -44 9q-85 0 -120 -44q-34 -43 -42 -110h-131z" />
<glyph unicode="&#xa1;" horiz-adv-x="405" d="M92 879q0 50 32 87q31 35 79 35t79 -35t31 -87q0 -54 -31 -88q-32 -35 -79 -35t-79 35t-32 88zM121 -389v909h158v-909h-158z" />
<glyph unicode="&#xa2;" d="M184 690q0 86 27 155t73 118q45 48 108 78q62 29 134 40v285h113v-285q81 -2 141 -31q58 -28 99 -61l-64 -108q-42 35 -84 53q-43 18 -92 18v-532q43 1 85 15q40 13 75 32l51 -119q-43 -26 -97 -43q-60 -19 -114 -20v-293h-113v297q-162 22 -252 131q-90 108 -90 270z M342 690q0 -110 48 -173t136 -91v524q-82 -10 -133 -77q-51 -66 -51 -183z" />
<glyph unicode="&#xa3;" d="M94 514v139h142v308q0 205 99 311t286 106q151 0 239 -67t135 -170l-155 -76q-28 65 -77 114q-50 50 -145 50q-112 0 -169 -65q-58 -66 -58 -212v-299h453v-139h-453v-375h604v-139h-759v514h-142z" />
<glyph unicode="&#xa4;" horiz-adv-x="1368" d="M0 158l322 327q-43 60 -67 128q-24 69 -24 145q0 69 22 138q22 68 60 124l-313 315l117 103l301 -310q61 44 129 68q72 25 147 25q150 0 264 -84l293 301l117 -103l-301 -303q43 -60 67 -128q23 -66 23 -146q0 -163 -98 -285l309 -315l-104 -99l-312 314 q-55 -36 -122 -58q-61 -20 -136 -20q-77 0 -143 22t-125 64l-320 -322zM379 756q0 -66 24 -123t68 -101q43 -43 100 -67q59 -25 123 -25t123 25t101 67t67 101t25 123q0 63 -25 124q-24 58 -67 101q-44 44 -101 68t-123 24t-123 -24q-55 -23 -100 -68t-68 -101 q-24 -58 -24 -124z" />
<glyph unicode="&#xa5;" d="M33 1350h186l332 -553l348 553h178l-295 -463h138v-139h-226l-67 -107v-57h284v-140h-284v-444h-164v444h-293v140h293v55l-66 109h-227v139h143z" />
<glyph unicode="&#xa6;" horiz-adv-x="393" d="M123 -152v564h147v-564h-147zM123 946v565h147v-565h-147z" />
<glyph unicode="&#xa7;" horiz-adv-x="862" d="M106 -176l78 108q39 -45 97 -76q55 -30 120 -30q87 0 136 39t49 106q0 34 -13 66q-12 30 -41 62q-30 33 -76 69q-48 38 -120 84q-107 70 -168 145q-62 77 -62 187q0 111 74 174q75 64 182 88l-72 63q-31 27 -60 66q-24 33 -40 77q-14 39 -14 97q0 112 83 178t214 66 q103 0 170 -35q65 -34 107 -82l-86 -92q-35 41 -86 65q-53 25 -109 25q-154 0 -154 -125q0 -61 57 -121q61 -64 160 -149q74 -64 116 -105q44 -43 73 -86q25 -37 38 -82q11 -37 11 -92q0 -50 -19 -91q-19 -40 -51 -74q-30 -31 -70 -55t-81 -36q35 -26 75 -59q29 -24 58 -60 q25 -32 38 -67q13 -36 13 -84q0 -68 -27 -120q-26 -51 -74 -88q-45 -35 -105 -55t-117 -20q-105 0 -178 32q-75 33 -126 87zM252 586q0 -79 55 -135q55 -55 154 -127q79 23 123 70q45 48 45 114q0 34 -9 64q-9 29 -31 61q-18 26 -58 64q-27 25 -87 77q-88 -15 -139 -58 q-53 -44 -53 -130z" />
<glyph unicode="&#xa8;" horiz-adv-x="905" d="M174 1323q0 47 30 80t72 33q41 0 71 -33t30 -80t-30 -81t-71 -34q-42 0 -72 34t-30 81zM528 1323q0 47 30 80t71 33q42 0 72 -33t30 -80t-30 -81t-72 -34q-41 0 -71 34t-30 81z" />
<glyph unicode="&#xa9;" horiz-adv-x="1589" d="M92 608q0 142 44 280q43 134 133 244q86 105 220 173q129 65 308 65q176 0 305 -65q132 -67 219 -173q89 -108 132 -244q44 -138 44 -280q0 -144 -44 -282q-44 -137 -132 -245q-87 -107 -220 -173q-132 -66 -306 -66q-177 0 -308 66q-132 67 -219 173q-88 108 -132 245 q-44 138 -44 282zM219 608q0 -122 37 -237q38 -119 109 -209q75 -91 181 -146q107 -55 251 -55q142 0 249 55q108 56 180 147q72 92 108 208q36 117 36 237q0 122 -36 237t-108 207q-71 90 -180 146q-107 55 -249 55q-145 0 -252 -55q-109 -56 -180 -146t-109 -207 q-37 -114 -37 -237zM422 604q0 124 30 212q31 92 80 148q51 59 121 86q69 27 150 27q116 0 184 -52q70 -53 109 -122l-97 -61q-30 57 -76 91t-124 34q-110 0 -179 -91q-69 -92 -69 -272q0 -173 73 -263q72 -89 179 -89q67 0 116 35q47 34 87 92l94 -66q-46 -78 -124 -125 q-77 -47 -175 -47q-81 0 -150 27q-73 28 -120 83q-49 57 -79 143q-30 87 -30 210z" />
<glyph unicode="&#xaa;" horiz-adv-x="700" d="M72 977q0 78 39 129t100 81q62 30 137 42q76 12 150 12q0 86 -36 122t-102 36q-98 0 -155 -80l-96 59q41 62 105 96q62 33 157 33q124 0 190 -62q68 -63 68 -210v-471h-121l-4 49q-28 -23 -78 -45q-51 -23 -104 -23q-48 0 -93 15q-46 15 -79 44q-38 33 -57 73 q-21 44 -21 100zM203 975q0 -62 43 -89q45 -28 88 -28q47 0 92 20q42 19 72 44v211q-45 0 -108 -9q-50 -7 -94 -26q-43 -18 -68 -48q-25 -29 -25 -75z" />
<glyph unicode="&#xab;" horiz-adv-x="985" d="M31 512l397 418l107 -80l-297 -328l325 -321l-98 -90zM395 512l410 418l102 -76l-295 -332l324 -323l-96 -88z" />
<glyph unicode="&#xac;" d="M57 907v144h967v-752h-147v608h-820z" />
<glyph unicode="&#xad;" horiz-adv-x="628" d="M92 461v145h445v-145h-445z" />
<glyph unicode="&#xae;" horiz-adv-x="1589" d="M92 608q0 142 44 280q43 134 133 244q86 105 220 173q129 65 308 65q176 0 305 -65q132 -67 219 -173q89 -108 132 -244q44 -138 44 -280q0 -144 -44 -282q-44 -137 -132 -245q-87 -107 -220 -173q-132 -66 -306 -66q-177 0 -308 66q-132 67 -219 173q-88 108 -132 245 q-44 138 -44 282zM219 608q0 -122 37 -237q38 -119 109 -209q75 -91 181 -146q107 -55 251 -55q142 0 249 55q108 56 180 147q72 92 108 208q36 117 36 237q0 122 -36 237t-108 207q-71 90 -180 146q-107 55 -249 55q-145 0 -252 -55q-109 -56 -180 -146t-109 -207 q-37 -114 -37 -237zM510 164v903h293q154 0 226 -69q73 -70 73 -181q0 -117 -62 -177q-63 -61 -153 -79l243 -397h-141l-239 387h-117v-387h-123zM633 662h164q176 0 176 155q0 141 -168 141h-172v-296z" />
<glyph unicode="&#xaf;" horiz-adv-x="905" d="M152 1208v127h602v-127h-602z" />
<glyph unicode="&#xb0;" horiz-adv-x="743" d="M82 1071q0 59 22 112t63 94q40 40 93 64q55 25 113 25q59 0 112 -24q58 -26 93 -63q38 -40 61 -94q23 -55 23 -114q0 -61 -23 -115q-23 -53 -61 -93q-35 -37 -93 -63q-53 -24 -112 -24t-113 23q-53 24 -93 64q-41 41 -63 93q-22 51 -22 115zM205 1071q0 -37 12 -67 q17 -34 38 -55q24 -24 53 -37t65 -13q75 0 121 52q47 53 47 120t-47 120q-46 52 -121 52q-72 0 -120 -50q-48 -49 -48 -122z" />
<glyph unicode="&#xb1;" d="M63 0v137h979v-137h-979zM74 768v143h411v449h144v-449h411v-143h-411v-451h-144v451h-411z" />
<glyph unicode="&#xb2;" horiz-adv-x="614" d="M55 1221q44 74 105 117q56 40 149 40q99 0 158 -52t59 -138q0 -69 -36 -129q-39 -66 -80 -113l-70 -76l-70 -75h273v-107h-459v74l115 122q64 70 96 107q55 66 76 102q24 41 24 85q0 45 -25 67q-26 23 -65 23q-40 0 -76 -22q-33 -20 -71 -81z" />
<glyph unicode="&#xb3;" horiz-adv-x="614" d="M51 819l101 58q34 -54 70 -73q38 -20 75 -20q53 0 91 29t38 76q0 49 -41 76q-38 25 -113 30v92q67 5 104 30q38 26 38 67q0 39 -32 63q-33 25 -77 25q-86 0 -131 -88l-100 57q40 72 105 105q63 32 134 32q43 0 84 -12q40 -12 73 -37q30 -23 52 -59q21 -35 21 -80t-22 -84 t-58 -62q42 -23 65 -58q25 -38 25 -95q0 -52 -23 -92t-58 -66t-82 -40q-45 -13 -91 -13q-68 0 -135 32q-68 32 -113 107z" />
<glyph unicode="&#xb4;" horiz-adv-x="905" d="M229 1190l342 285l105 -107l-371 -254z" />
<glyph unicode="&#xb5;" horiz-adv-x="1175" d="M164 -387v1364h160v-623q0 -135 61 -192q63 -58 178 -58q94 0 158 38q62 37 90 91q14 27 16 68q2 52 2 74v602h160v-735q0 -71 13 -103q14 -33 63 -33q26 0 55 9l25 -115q-21 -10 -54 -16q-37 -7 -53 -7q-68 0 -115 26t-71 95q-62 -64 -129 -92q-69 -29 -172 -29 q-76 0 -136 24q-61 24 -100 71v-459h-151z" />
<glyph unicode="&#xb6;" horiz-adv-x="1036" d="M72 965q0 83 31 155q31 73 85 128q52 54 126 86q73 32 157 32h145v-1663h-145v862q-84 0 -157 32t-126 85t-85 126q-31 71 -31 157zM754 -297v1663h147v-1663h-147z" />
<glyph unicode="&#xb7;" horiz-adv-x="589" d="M184 756q0 50 32 87q32 36 79 36t79 -36q32 -37 32 -87t-32 -87q-32 -36 -79 -36t-79 36q-32 37 -32 87z" />
<glyph unicode="&#xb8;" horiz-adv-x="905" d="M0 -356l104 266h168l-147 -266h-125z" />
<glyph unicode="&#xb9;" horiz-adv-x="614" d="M86 1245l217 125h103v-680h-125v537l-140 -80z" />
<glyph unicode="&#xba;" horiz-adv-x="821" d="M72 1139q0 72 20 138q21 70 63 122q43 53 105 86q63 33 150 33q86 0 149 -33q65 -34 106 -87q42 -54 63 -123q22 -72 22 -140q0 -69 -22 -140q-21 -68 -63 -122q-41 -53 -106 -87q-61 -32 -149 -32q-87 0 -148 32q-61 33 -105 90t-64 122q-21 69 -21 141zM203 1139 q0 -55 13 -103q13 -47 38 -88q27 -39 65 -61q40 -23 91 -23q50 0 90 23q38 22 65 61q26 38 40 87q13 46 13 102q0 52 -13 100q-14 51 -40 87q-28 38 -65 60q-40 23 -90 23q-51 0 -91 -23q-38 -22 -64 -60q-25 -37 -39 -86q-13 -46 -13 -99z" />
<glyph unicode="&#xbb;" horiz-adv-x="985" d="M49 199l324 323l-295 332l102 76l410 -418l-447 -401zM422 201l326 321l-297 328l106 80l397 -418l-434 -401z" />
<glyph unicode="&#xbc;" horiz-adv-x="1515" d="M53 57l1307 1315l90 -94l-1319 -1311zM86 1245l217 125h103v-680h-125v537l-140 -80zM895 184v97l330 397h98v-404h84v-90h-84v-178h-125v178h-303zM1016 274h182v228z" />
<glyph unicode="&#xbd;" horiz-adv-x="1515" d="M25 57l1306 1315l90 -94l-1319 -1311zM70 1245l217 125h102v-680h-125v537l-139 -80zM891 537q45 75 104 117q56 40 150 40q99 0 158 -52t59 -138q0 -69 -36 -129q-37 -62 -81 -113l-69 -76l-70 -75h272v-107h-458v74l114 122q64 70 96 107q55 66 76 102q25 42 25 85 q0 44 -26 67t-64 23q-40 0 -76 -22q-35 -21 -72 -81z" />
<glyph unicode="&#xbe;" horiz-adv-x="1515" d="M51 819l101 58q34 -54 70 -73q38 -20 75 -20q53 0 91 29t38 76q0 49 -41 76q-38 25 -113 30v92q67 5 104 30q38 26 38 67q0 39 -32 63q-33 25 -77 25q-86 0 -131 -88l-100 57q40 72 105 105q63 32 134 32q43 0 84 -12q40 -12 73 -37q30 -23 52 -59q21 -35 21 -80t-22 -84 t-58 -62q42 -23 65 -58q25 -38 25 -95q0 -52 -23 -92t-58 -66t-82 -40q-45 -13 -91 -13q-68 0 -135 32q-68 32 -113 107zM76 57l1306 1315l91 -94l-1319 -1311zM907 184v97l330 397h98v-404h84v-90h-84v-178h-125v178h-303zM1028 274h182v228z" />
<glyph unicode="&#xbf;" horiz-adv-x="757" d="M12 -43q0 91 44 167q41 71 104 140l77 87q31 36 51 66t27 55q9 31 9 56v74h149v-88q0 -94 -47 -164q-46 -69 -102 -129q-71 -76 -110 -132q-40 -58 -40 -144q0 -101 55 -157t160 -56q93 0 162 54q71 56 121 132l110 -80q-28 -46 -62 -85q-36 -42 -85 -76t-112 -55 t-142 -21q-180 0 -275 95q-94 94 -94 261zM289 879q0 50 32 87q31 35 78 35q48 0 79 -35q32 -37 32 -87q0 -53 -32 -88t-79 -35q-46 0 -78 35t-32 88z" />
<glyph unicode="&#xc0;" horiz-adv-x="1163" d="M0 0l526 1366h101l536 -1366h-178l-162 422h-495l-156 -422h-172zM295 1708l104 107l342 -285l-73 -76zM381 567h389l-199 523z" />
<glyph unicode="&#xc1;" horiz-adv-x="1163" d="M0 0l526 1366h101l536 -1366h-178l-162 422h-495l-156 -422h-172zM377 1530l342 285l104 -107l-370 -254zM381 567h389l-199 523z" />
<glyph unicode="&#xc2;" horiz-adv-x="1163" d="M0 0l526 1366h101l536 -1366h-178l-162 422h-495l-156 -422h-172zM270 1516l258 294h99l258 -294l-90 -62l-217 229l-216 -229zM381 567h389l-199 523z" />
<glyph unicode="&#xc3;" horiz-adv-x="1163" d="M0 0l526 1366h101l536 -1366h-178l-162 422h-495l-156 -422h-172zM215 1552q29 94 85 148q56 55 128 55q46 0 88 -23l84 -49q9 -6 47 -28q29 -17 58 -17q31 0 61 27q31 28 59 94l101 -49q-33 -95 -88 -147q-57 -54 -127 -54q-39 0 -76 18q-40 19 -72 40q-16 9 -59 36 q-36 23 -70 23t-62 -28q-30 -30 -57 -93zM381 567h389l-199 523z" />
<glyph unicode="&#xc4;" horiz-adv-x="1163" d="M0 0l526 1366h101l536 -1366h-178l-162 422h-495l-156 -422h-172zM299 1661q0 47 30 80t72 33q41 0 71 -33t30 -80t-30 -81t-71 -34q-42 0 -72 34t-30 81zM381 567h389l-199 523zM653 1661q0 47 30 80t71 33q42 0 72 -33t30 -80t-30 -81t-72 -34q-41 0 -71 34t-30 81z " />
<glyph unicode="&#xc5;" horiz-adv-x="1163" d="M0 0l524 1362q-18 5 -28 10q-35 18 -59 47q-24 28 -36 65q-12 36 -12 75q0 37 12 75t36 66q23 28 60 46q34 17 83 17t83 -17q37 -18 60 -46q26 -30 37 -66q12 -37 12 -75q0 -37 -12 -74q-11 -36 -37 -66q-25 -30 -61 -47q-15 -6 -33 -12l534 -1360h-178l-162 422h-495 l-156 -422h-172zM381 567h389l-199 523zM475 1559q0 -45 27 -84q27 -37 78 -37q50 0 77 38t27 83q0 48 -27 85t-77 37q-51 0 -78 -37t-27 -85z" />
<glyph unicode="&#xc6;" horiz-adv-x="1730" d="M0 0l770 1366h862v-141h-594v-439h412v-141h-412v-504h641v-141h-805v422h-454l-238 -422h-182zM502 567h372v662z" />
<glyph unicode="&#xc7;" horiz-adv-x="1165" d="M100 678q0 189 47 327q46 135 124 222q77 85 174 126q96 40 198 40q156 0 277 -76q120 -75 180 -205l-133 -80q-18 38 -48 75q-32 40 -70 68q-40 29 -88 49q-47 19 -104 19q-179 0 -281 -147t-102 -420q0 -130 31 -237q29 -100 84 -174q51 -69 126 -106q72 -36 157 -36 q60 0 105 16t84 44q36 26 68 66q28 35 54 79l125 -80q-25 -46 -66 -98q-39 -50 -92 -89q-51 -38 -123 -63t-157 -25q-123 0 -225 40q-105 41 -180 125q-79 88 -121 218q-44 135 -44 322zM475 -356l105 266h168l-148 -266h-125z" />
<glyph unicode="&#xc8;" horiz-adv-x="1052" d="M166 0v1366h797v-141h-633v-439h452v-141h-454v-504h684v-141h-846zM326 1708l104 107l342 -285l-74 -76z" />
<glyph unicode="&#xc9;" horiz-adv-x="1052" d="M166 0v1366h797v-141h-633v-439h452v-141h-454v-504h684v-141h-846zM383 1530l342 285l104 -107l-370 -254z" />
<glyph unicode="&#xca;" horiz-adv-x="1052" d="M166 0v1366h797v-141h-633v-439h452v-141h-454v-504h684v-141h-846zM274 1516l258 294h99l258 -294l-90 -62l-217 229l-215 -229z" />
<glyph unicode="&#xcb;" horiz-adv-x="1052" d="M166 0v1366h797v-141h-633v-439h452v-141h-454v-504h684v-141h-846zM293 1663q0 47 30 80t72 33q41 0 71 -33t30 -80t-30 -81t-71 -34q-42 0 -72 34t-30 81zM647 1663q0 47 30 80t71 33q42 0 72 -33t30 -80t-30 -81t-72 -34q-41 0 -71 34t-30 81z" />
<glyph unicode="&#xcc;" horiz-adv-x="495" d="M-20 1708l104 107l342 -285l-74 -76zM166 0v1366h164v-1366h-164z" />
<glyph unicode="&#xcd;" horiz-adv-x="495" d="M80 1530l342 285l104 -107l-370 -254zM166 0v1366h164v-1366h-164z" />
<glyph unicode="&#xce;" horiz-adv-x="495" d="M-43 1516l258 294h98l258 -294l-90 -62l-217 229l-215 -229zM166 0v1366h164v-1366h-164z" />
<glyph unicode="&#xcf;" horiz-adv-x="495" d="M-20 1663q0 48 29 80q30 33 73 33q41 0 71 -33q29 -32 29 -80t-29 -81q-30 -34 -71 -34q-43 0 -73 34q-29 33 -29 81zM166 0v1366h164v-1366h-164zM334 1663q0 47 30 80t70 33q43 0 73 -33t30 -80t-30 -81t-73 -34q-40 0 -70 34t-30 81z" />
<glyph unicode="&#xd0;" horiz-adv-x="1275" d="M-2 647v127h168v592h354q81 0 165 -13q87 -13 159 -48q145 -68 241 -220q95 -151 95 -383q0 -143 -33 -257q-32 -112 -90 -197q-56 -82 -137 -139q-78 -54 -172 -82q-46 -15 -112 -21q-64 -6 -116 -6h-354v647h-168zM330 141h168q40 0 103 5q53 4 104 24q59 26 116 69 t97 105q41 63 65 150q25 89 25 200q0 178 -56 287q-56 110 -149 170q-58 38 -139 56q-80 18 -156 18h-178v-451h327v-127h-327v-506z" />
<glyph unicode="&#xd1;" horiz-adv-x="1347" d="M166 0v1366h166l688 -1018v1018h162v-1366h-121l-733 1083v-1083h-162zM344 1552q29 94 85 148q56 55 128 55q46 0 88 -23l84 -49q9 -6 47 -28q29 -17 58 -17q31 0 61 27q31 28 59 94l101 -49q-33 -95 -88 -147q-57 -54 -127 -54q-38 0 -76 18q-40 19 -72 40 q-16 9 -59 36q-36 23 -70 23t-62 -28q-30 -30 -57 -93z" />
<glyph unicode="&#xd2;" horiz-adv-x="1353" d="M100 684q0 134 34 260t105 227t179 161q110 61 260 61q148 0 258 -61q108 -60 179 -161t105 -227q33 -122 33 -260q0 -139 -33 -261q-35 -128 -105 -227q-71 -99 -179 -161q-109 -62 -258 -62q-151 0 -260 62q-108 62 -179 161q-70 99 -105 227q-34 126 -34 261zM272 684 q0 -102 25 -208q24 -100 74 -181q52 -81 127 -128q76 -48 180 -48t180 48q74 47 125 128q50 81 74 181q24 102 24 208q0 108 -23 206q-24 102 -73 181q-50 80 -126 128q-77 48 -181 48t-181 -48q-78 -49 -127 -128q-50 -81 -74 -181q-24 -102 -24 -206zM453 1708l104 107 l342 -285l-74 -76z" />
<glyph unicode="&#xd3;" horiz-adv-x="1353" d="M100 684q0 134 34 260t105 227t179 161q110 61 260 61q148 0 258 -61q108 -60 179 -161t105 -227q33 -122 33 -260q0 -139 -33 -261q-35 -128 -105 -227q-71 -99 -179 -161q-109 -62 -258 -62q-151 0 -260 62q-108 62 -179 161q-70 99 -105 227q-34 126 -34 261zM272 684 q0 -102 25 -208q24 -100 74 -181q52 -81 127 -128q76 -48 180 -48t180 48q74 47 125 128q50 81 74 181q24 102 24 208q0 108 -23 206q-24 102 -73 181q-50 80 -126 128q-77 48 -181 48t-181 -48q-78 -49 -127 -128q-50 -81 -74 -181q-24 -102 -24 -206zM471 1530l342 285 l105 -107l-371 -254z" />
<glyph unicode="&#xd4;" horiz-adv-x="1353" d="M100 684q0 134 34 260t105 227t179 161q110 61 260 61q148 0 258 -61q108 -60 179 -161t105 -227q33 -122 33 -260q0 -139 -33 -261q-35 -128 -105 -227q-71 -99 -179 -161q-109 -62 -258 -62q-151 0 -260 62q-108 62 -179 161q-70 99 -105 227q-34 126 -34 261zM272 684 q0 -102 25 -208q24 -100 74 -181q52 -81 127 -128q76 -48 180 -48t180 48q74 47 125 128q50 81 74 181q24 102 24 208q0 108 -23 206q-24 102 -73 181q-50 80 -126 128q-77 48 -181 48t-181 -48q-78 -49 -127 -128q-50 -81 -74 -181q-24 -102 -24 -206zM371 1516l258 294h98 l258 -294l-90 -62l-217 229l-215 -229z" />
<glyph unicode="&#xd5;" horiz-adv-x="1353" d="M100 684q0 134 34 260t105 227t179 161q110 61 260 61q148 0 258 -61q108 -60 179 -161t105 -227q33 -122 33 -260q0 -139 -33 -261q-35 -128 -105 -227q-71 -99 -179 -161q-109 -62 -258 -62q-151 0 -260 62q-108 62 -179 161q-70 99 -105 227q-34 126 -34 261zM272 684 q0 -102 25 -208q24 -100 74 -181q52 -81 127 -128q76 -48 180 -48t180 48q74 47 125 128q50 81 74 181q24 102 24 208q0 108 -23 206q-24 102 -73 181q-50 80 -126 128q-77 48 -181 48t-181 -48q-78 -49 -127 -128q-50 -81 -74 -181q-24 -102 -24 -206zM313 1552 q29 94 85 148q56 55 128 55q46 0 88 -23l84 -49q9 -6 47 -28q29 -17 58 -17q31 0 61 27q33 29 60 94l100 -49q-33 -95 -88 -147q-57 -54 -127 -54q-39 0 -76 18t-71 40q-22 12 -60 36q-36 23 -70 23t-62 -28t-56 -93z" />
<glyph unicode="&#xd6;" horiz-adv-x="1353" d="M100 684q0 134 34 260t105 227t179 161q110 61 260 61q148 0 258 -61q108 -60 179 -161t105 -227q33 -122 33 -260q0 -139 -33 -261q-35 -128 -105 -227q-71 -99 -179 -161q-109 -62 -258 -62q-151 0 -260 62q-108 62 -179 161q-70 99 -105 227q-34 126 -34 261zM272 684 q0 -102 25 -208q24 -100 74 -181q52 -81 127 -128q76 -48 180 -48t180 48q74 47 125 128q50 81 74 181q24 102 24 208q0 108 -23 206q-24 102 -73 181q-50 80 -126 128q-77 48 -181 48t-181 -48q-78 -49 -127 -128q-50 -81 -74 -181q-24 -102 -24 -206zM401 1663q0 47 30 80 t73 33q40 0 70 -33t30 -80t-30 -81t-70 -34q-43 0 -73 34t-30 81zM756 1663q0 48 29 80q30 33 71 33q43 0 73 -33q29 -32 29 -80t-29 -81q-30 -34 -73 -34q-41 0 -71 34q-29 33 -29 81z" />
<glyph unicode="&#xd7;" d="M170 408l276 276l-276 274l104 111l279 -278l281 278l102 -111l-277 -274l277 -276l-100 -113l-283 283l-281 -283z" />
<glyph unicode="&#xd8;" horiz-adv-x="1353" d="M100 684q0 134 34 260t105 227t179 161q110 61 260 61q124 0 219 -43q97 -44 168 -115l127 160l100 -86l-149 -187q54 -103 82 -210q28 -109 28 -228q0 -139 -33 -261q-35 -128 -105 -227q-71 -99 -179 -161q-109 -62 -258 -62q-106 0 -195 33q-88 33 -155 88l-111 -139 l-100 90l123 154q-69 103 -104 227q-36 128 -36 258zM272 684q0 -92 21 -180q22 -94 57 -166l613 770q-51 64 -121 101q-73 38 -164 38q-104 0 -181 -48q-78 -49 -127 -128q-50 -81 -74 -181q-24 -102 -24 -206zM428 221q48 -48 111 -75t139 -27q104 0 180 48q74 47 125 128 q50 81 74 181q24 102 24 208q0 79 -14 149q-15 74 -39 142z" />
<glyph unicode="&#xd9;" horiz-adv-x="1325" d="M158 457v909h164v-879q0 -174 90 -271t250 -97q161 0 251 94q91 96 91 274v879h163v-909q0 -121 -42 -211q-43 -92 -112 -151q-72 -61 -163 -91q-95 -31 -193 -31q-102 0 -197 31q-90 29 -159 91q-67 59 -105 151q-38 91 -38 211zM393 1708l105 107l342 -285l-74 -76z " />
<glyph unicode="&#xda;" horiz-adv-x="1325" d="M158 457v909h164v-879q0 -174 90 -271t250 -97q161 0 251 94q91 96 91 274v879h163v-909q0 -121 -42 -211q-43 -92 -112 -151q-72 -61 -163 -91q-95 -31 -193 -31q-102 0 -197 31q-90 29 -159 91q-67 59 -105 151q-38 91 -38 211zM475 1530l342 285l105 -107l-371 -254z " />
<glyph unicode="&#xdb;" horiz-adv-x="1325" d="M158 457v909h164v-879q0 -174 90 -271t250 -97q161 0 251 94q91 96 91 274v879h163v-909q0 -121 -42 -211q-43 -92 -112 -151q-72 -61 -163 -91q-95 -31 -193 -31q-102 0 -197 31q-90 29 -159 91q-67 59 -105 151q-38 91 -38 211zM371 1516l258 294h98l258 -294l-90 -62 l-217 229l-215 -229z" />
<glyph unicode="&#xdc;" horiz-adv-x="1325" d="M158 457v909h164v-879q0 -174 90 -271t250 -97q161 0 251 94q91 96 91 274v879h163v-909q0 -121 -42 -211q-43 -92 -112 -151q-72 -61 -163 -91q-95 -31 -193 -31q-102 0 -197 31q-90 29 -159 91q-67 59 -105 151q-38 91 -38 211zM395 1663q0 47 30 80t73 33q40 0 70 -33 t30 -80t-30 -81t-70 -34q-43 0 -73 34t-30 81zM750 1663q0 48 29 80q30 33 71 33q43 0 73 -33q29 -32 29 -80t-29 -81q-30 -34 -73 -34q-41 0 -71 34q-29 33 -29 81z" />
<glyph unicode="&#xdd;" horiz-adv-x="1112" d="M0 1366h186l365 -553l383 553h178l-483 -709v-657h-164v655zM373 1530l342 285l104 -107l-370 -254z" />
<glyph unicode="&#xde;" horiz-adv-x="1093" d="M166 0v1366h164v-242h245q465 0 465 -411q0 -200 -120 -302q-122 -104 -349 -104h-241v-307h-164zM330 451h252q125 0 202 62q78 63 78 202q0 141 -74 206q-73 64 -208 64h-250v-534z" />
<glyph unicode="&#xdf;" horiz-adv-x="1081" d="M41 848v129h141q4 205 102 310q98 106 275 106q165 0 263 -101t98 -274v-150h-158q-87 0 -127 -31q-41 -32 -41 -83q0 -30 9 -52q8 -21 32 -43q19 -18 60 -39q46 -24 96 -45q130 -55 192 -128q61 -71 61 -179q0 -68 -24 -122t-68 -92t-100 -57q-58 -20 -125 -20 q-63 0 -117 13q-45 11 -86 37q-35 22 -65 59q-29 35 -56 80l129 67q33 -65 78 -97q46 -32 117 -32q79 0 123 37q45 38 45 107q0 35 -10 64t-35 57q-23 25 -68 52q-42 24 -106 52q-104 43 -168 107t-64 174q0 122 87 181q85 57 241 62q0 138 -60 204q-61 67 -155 67t-155 -67 q-60 -66 -60 -224v-977h-160v848h-141z" />
<glyph unicode="&#xe0;" horiz-adv-x="962" d="M78 283q0 106 56 172t142 107q82 39 191 56q108 17 203 17v12q0 123 -53 176q-54 54 -150 54q-67 0 -124 -30q-56 -29 -95 -79l-111 78q61 81 141 118t203 37q165 0 255 -83q91 -84 91 -281v-637h-143l-8 84q-52 -52 -118 -79q-68 -28 -146 -28q-62 0 -124 20 q-61 20 -107 57q-45 36 -75 96q-28 56 -28 133zM209 1368l104 107l342 -285l-73 -76zM238 281q0 -47 18 -80t46 -55q27 -21 62 -30q38 -10 66 -10q72 0 132 30q62 31 108 71v303q-54 -1 -144 -10q-73 -7 -140 -32q-64 -24 -106 -69t-42 -118z" />
<glyph unicode="&#xe1;" horiz-adv-x="962" d="M78 283q0 106 56 172t142 107q82 39 191 56q108 17 203 17v12q0 123 -53 176q-54 54 -150 54q-67 0 -124 -30q-56 -29 -95 -79l-111 78q61 81 141 118t203 37q165 0 255 -83q91 -84 91 -281v-637h-143l-8 84q-52 -52 -118 -79q-68 -28 -146 -28q-62 0 -124 20 q-61 20 -107 57q-45 36 -75 96q-28 56 -28 133zM238 281q0 -47 18 -80t46 -55q27 -21 62 -30q38 -10 66 -10q72 0 132 30q62 31 108 71v303q-54 -1 -144 -10q-73 -7 -140 -32q-64 -24 -106 -69t-42 -118zM303 1190l342 285l105 -107l-371 -254z" />
<glyph unicode="&#xe2;" horiz-adv-x="962" d="M78 283q0 106 56 172t142 107q82 39 191 56q108 17 203 17v12q0 123 -53 176q-54 54 -150 54q-67 0 -124 -30q-56 -29 -95 -79l-111 78q61 81 141 118t203 37q165 0 255 -83q91 -84 91 -281v-637h-143l-8 84q-52 -52 -118 -79q-68 -28 -146 -28q-62 0 -124 20 q-61 20 -107 57q-45 36 -75 96q-28 56 -28 133zM172 1176l258 294h98l258 -294l-90 -62l-217 229l-215 -229zM238 281q0 -47 18 -80t46 -55q27 -21 62 -30q38 -10 66 -10q72 0 132 30q62 31 108 71v303q-54 -1 -144 -10q-73 -7 -140 -32q-64 -24 -106 -69t-42 -118z" />
<glyph unicode="&#xe3;" horiz-adv-x="962" d="M78 283q0 106 56 172t142 107q82 39 191 56q108 17 203 17v12q0 123 -53 176q-54 54 -150 54q-67 0 -124 -30q-56 -29 -95 -79l-111 78q61 81 141 118t203 37q165 0 255 -83q91 -84 91 -281v-637h-143l-8 84q-52 -52 -118 -79q-68 -28 -146 -28q-62 0 -124 20 q-61 20 -107 57q-45 36 -75 96q-28 56 -28 133zM131 1212q29 94 85 148q56 55 128 55q46 0 88 -23l84 -49q9 -6 47 -28q29 -17 58 -17q31 0 61 27q31 28 59 94l101 -49q-33 -95 -88 -147q-57 -54 -127 -54q-38 0 -76 18q-40 19 -72 40q-17 9 -59 36q-36 23 -70 23 q-35 0 -62 -27q-29 -29 -57 -94zM238 281q0 -47 18 -80t46 -55q27 -21 62 -30q38 -10 66 -10q72 0 132 30q62 31 108 71v303q-54 -1 -144 -10q-73 -7 -140 -32q-64 -24 -106 -69t-42 -118z" />
<glyph unicode="&#xe4;" horiz-adv-x="962" d="M78 283q0 106 56 172t142 107q82 39 191 56q108 17 203 17v12q0 123 -53 176q-54 54 -150 54q-67 0 -124 -30q-56 -29 -95 -79l-111 78q61 81 141 118t203 37q165 0 255 -83q91 -84 91 -281v-637h-143l-8 84q-52 -52 -118 -79q-68 -28 -146 -28q-62 0 -124 20 q-61 20 -107 57q-45 36 -75 96q-28 56 -28 133zM205 1323q0 47 30 80t72 33q41 0 71 -33t30 -80t-30 -81t-71 -34q-42 0 -72 34t-30 81zM238 281q0 -47 18 -80t46 -55q27 -21 62 -30q38 -10 66 -10q72 0 132 30q62 31 108 71v303q-54 -1 -144 -10q-73 -7 -140 -32 q-64 -24 -106 -69t-42 -118zM559 1323q0 47 30 80t70 33q43 0 73 -33t30 -80t-30 -81t-73 -34q-40 0 -70 34t-30 81z" />
<glyph unicode="&#xe5;" horiz-adv-x="962" d="M78 283q0 106 56 172t142 107q82 39 191 56q108 17 203 17v12q0 123 -53 176q-54 54 -150 54q-67 0 -124 -30q-56 -29 -95 -79l-111 78q61 81 141 118t203 37q165 0 255 -83q91 -84 91 -281v-637h-143l-8 84q-52 -52 -118 -79q-68 -28 -146 -28q-62 0 -124 20 q-61 20 -107 57q-45 36 -75 96q-28 56 -28 133zM238 281q0 -47 18 -80t46 -55q27 -21 62 -30q38 -10 66 -10q72 0 132 30q62 31 108 71v303q-54 -1 -144 -10q-73 -7 -140 -32q-64 -24 -106 -69t-42 -118zM293 1296q0 38 12 76t36 66t59 46q34 17 83 17t83 -17q38 -19 61 -46 q26 -30 37 -66q12 -38 12 -76q0 -36 -12 -73q-11 -36 -37 -66q-23 -27 -61 -46q-34 -17 -83 -17q-48 0 -84 16q-33 17 -58 47q-24 28 -36 65q-12 36 -12 74zM379 1296q0 -45 27 -84q26 -36 77 -36t78 37t27 83q0 48 -27 85q-27 38 -78 38q-50 0 -77 -38q-27 -37 -27 -85z " />
<glyph unicode="&#xe6;" horiz-adv-x="1566" d="M78 283q0 106 56 172t142 107q82 39 191 56q108 17 203 17v12q0 123 -53 176q-54 54 -150 54q-67 0 -124 -30q-56 -29 -95 -79l-113 76q60 78 141 118q79 39 205 39q113 0 178 -36q67 -37 111 -111q51 71 123 109t186 38q110 0 185 -36q77 -37 127 -104q47 -62 72 -160 q24 -93 24 -203h-664q0 -191 70 -293q69 -101 211 -101q90 0 151 38q60 38 107 116l102 -65q-52 -98 -144 -157t-220 -59q-71 0 -130 17q-58 17 -98 42q-41 26 -68 56q-26 29 -44 60q-20 -34 -47 -62q-28 -30 -70 -56q-41 -26 -94 -41q-56 -16 -121 -16q-72 0 -135 21 q-67 22 -112 59q-50 40 -76 96q-27 57 -27 130zM238 281q0 -86 50 -130q51 -45 142 -45q115 0 178 52q62 51 62 137v215q-54 -1 -144 -10q-73 -7 -140 -32q-64 -24 -106 -69t-42 -118zM825 623h484q-6 127 -71 191q-64 63 -159 63q-99 0 -169 -59q-68 -58 -85 -195z" />
<glyph unicode="&#xe7;" horiz-adv-x="970" d="M94 485q0 137 39 236q38 96 103 161q62 62 143 91q78 28 160 28q81 0 144 -24t107 -62q46 -40 71 -77q29 -43 40 -74l-117 -74q-43 98 -108 141t-137 43q-57 0 -107 -25q-52 -26 -92 -75q-43 -53 -66 -121q-24 -72 -24 -164q0 -91 24 -163q23 -69 67 -121q43 -50 98 -75 q58 -26 120 -26q71 0 138 41q65 40 110 134l111 -70q-56 -117 -157 -175q-99 -57 -210 -57q-84 0 -169 31q-82 30 -146 94t-103 159t-39 224zM354 -356l105 266h168l-148 -266h-125z" />
<glyph unicode="&#xe8;" horiz-adv-x="1040" d="M94 494q0 115 32 209q32 96 88 160q59 68 137 103q79 35 179 35q112 0 190 -36q81 -38 134 -104t80 -160q27 -93 27 -203h-711q0 -184 84 -289t244 -105q91 0 155 46q66 47 103 110l104 -70q-53 -92 -138 -152q-87 -61 -229 -61q-111 0 -198 34q-88 34 -151 99 q-61 62 -96 160q-34 95 -34 224zM264 623h518q-2 63 -24 111q-22 47 -58 80t-79 47q-48 16 -91 16q-98 0 -169 -59q-70 -58 -97 -195zM285 1368l104 107l342 -285l-74 -76z" />
<glyph unicode="&#xe9;" horiz-adv-x="1040" d="M94 494q0 115 32 209q32 96 88 160q59 68 137 103q79 35 179 35q112 0 190 -36q81 -38 134 -104t80 -160q27 -93 27 -203h-711q0 -184 84 -289t244 -105q91 0 155 46q66 47 103 110l104 -70q-53 -92 -138 -152q-87 -61 -229 -61q-111 0 -198 34q-88 34 -151 99 q-61 62 -96 160q-34 95 -34 224zM264 623h518q-2 63 -24 111q-22 47 -58 80t-79 47q-48 16 -91 16q-98 0 -169 -59q-70 -58 -97 -195zM328 1190l342 285l104 -107l-371 -254z" />
<glyph unicode="&#xea;" horiz-adv-x="1040" d="M94 494q0 115 32 209q32 96 88 160q59 68 137 103q79 35 179 35q112 0 190 -36q81 -38 134 -104t80 -160q27 -93 27 -203h-711q0 -184 84 -289t244 -105q91 0 155 46q66 47 103 110l104 -70q-53 -92 -138 -152q-87 -61 -229 -61q-111 0 -198 34q-88 34 -151 99 q-61 62 -96 160q-34 95 -34 224zM233 1176l259 294h98l258 -294l-90 -62l-217 229l-215 -229zM264 623h518q-2 63 -24 111q-22 47 -58 80t-79 47q-48 16 -91 16q-98 0 -169 -59q-70 -58 -97 -195z" />
<glyph unicode="&#xeb;" horiz-adv-x="1040" d="M94 494q0 115 32 209q32 96 88 160q59 68 137 103q79 35 179 35q112 0 190 -36q81 -38 134 -104t80 -160q27 -93 27 -203h-711q0 -184 84 -289t244 -105q91 0 155 46q66 47 103 110l104 -70q-53 -92 -138 -152q-87 -61 -229 -61q-111 0 -198 34q-88 34 -151 99 q-61 62 -96 160q-34 95 -34 224zM260 1323q0 47 30 80t73 33q40 0 70 -33t30 -80t-30 -81t-70 -34q-43 0 -73 34t-30 81zM264 623h518q-2 63 -24 111q-22 47 -58 80t-79 47q-48 16 -91 16q-98 0 -169 -59q-70 -58 -97 -195zM614 1323q0 47 30 80t71 33q42 0 72 -33t30 -80 t-30 -81t-72 -34q-41 0 -71 34t-30 81z" />
<glyph unicode="&#xec;" horiz-adv-x="440" d="M-98 1368l104 107l342 -285l-74 -76zM141 0v977h158v-977h-158z" />
<glyph unicode="&#xed;" horiz-adv-x="440" d="M106 1190l343 285l104 -107l-371 -254zM141 0v977h158v-977h-158z" />
<glyph unicode="&#xee;" horiz-adv-x="440" d="M-82 1176l258 294h98l258 -294l-90 -62l-217 229l-215 -229zM141 0v977h158v-977h-158z" />
<glyph unicode="&#xef;" horiz-adv-x="440" d="M-53 1323q0 48 29 80q30 33 73 33q41 0 71 -33t30 -80t-30 -81t-71 -34q-43 0 -73 34q-29 33 -29 81zM141 0v977h158v-977h-158zM301 1323q0 47 30 80t70 33q43 0 73 -33t30 -80t-30 -81t-73 -34q-40 0 -70 34t-30 81z" />
<glyph unicode="&#xf0;" horiz-adv-x="1099" d="M94 494q0 120 34 213q35 95 93 159q61 67 144 101t186 34q82 0 132 -17q56 -19 87 -34q-25 58 -60 110t-83 87l-64 -84l-90 59l62 84q-35 20 -93 40q-56 20 -106 30l31 117q66 -7 136 -31q69 -23 107 -49l64 88l92 -62l-66 -88q64 -52 118 -114q55 -64 97 -152 q43 -91 66 -194q25 -112 25 -244q0 -150 -37 -257q-37 -108 -99 -177q-63 -71 -143 -103q-83 -33 -174 -33q-95 0 -180 35q-84 35 -146 101q-61 66 -97 161q-36 96 -36 220zM252 494q0 -95 22 -165q23 -72 64 -123q42 -51 95 -76q55 -26 120 -26q60 0 116 25q51 23 94 78 q38 49 63 136q24 82 24 202q0 83 -14 147q-12 73 -27 113q-46 25 -113 49q-64 23 -141 23q-134 0 -219 -100q-84 -99 -84 -283z" />
<glyph unicode="&#xf1;" horiz-adv-x="1107" d="M141 0v977h146l10 -78q62 47 140 74q80 28 169 28q202 0 284 -99q83 -100 83 -294v-608h-158v612q0 125 -55 193q-56 69 -180 69q-81 0 -153 -33q-76 -35 -128 -75v-766h-158zM215 1212q29 94 85 148q56 55 128 55q46 0 88 -23l84 -49q9 -6 47 -28q29 -17 58 -17 q31 0 61 27q31 28 59 94l101 -49q-33 -95 -88 -147q-57 -54 -127 -54q-39 0 -76 18q-40 19 -72 40q-16 9 -59 36q-36 23 -70 23t-62 -28q-30 -30 -57 -93z" />
<glyph unicode="&#xf2;" horiz-adv-x="1097" d="M94 494q0 92 28 187q26 89 85 163q55 70 142 114q85 43 200 43q113 0 199 -44q85 -43 142 -115q56 -71 85 -164t29 -189q0 -95 -29 -188t-85 -164q-57 -72 -142 -115q-88 -45 -199 -45q-114 0 -199 43q-83 44 -141 118q-57 72 -86 166q-29 95 -29 190zM250 494 q0 -75 18 -144t56 -125q40 -54 95 -87q56 -34 130 -34q76 0 132 34q57 34 94 88q38 55 56 124q19 73 19 142q0 68 -19 141q-18 69 -56 124q-38 54 -94 87q-57 33 -132 33t-132 -33q-54 -32 -93 -87q-38 -55 -56 -123q-18 -69 -18 -140zM281 1368l104 107l342 -285l-74 -76z " />
<glyph unicode="&#xf3;" horiz-adv-x="1097" d="M94 494q0 92 28 187q26 89 85 163q55 70 142 114q85 43 200 43q113 0 199 -44q85 -43 142 -115q56 -71 85 -164t29 -189q0 -95 -29 -188t-85 -164q-57 -72 -142 -115q-88 -45 -199 -45q-114 0 -199 43q-83 44 -141 118q-57 72 -86 166q-29 95 -29 190zM250 494 q0 -75 18 -144t56 -125q40 -54 95 -87q56 -34 130 -34q76 0 132 34q57 34 94 88q38 55 56 124q19 73 19 142q0 68 -19 141q-18 69 -56 124q-38 54 -94 87q-57 33 -132 33t-132 -33q-54 -32 -93 -87q-38 -55 -56 -123q-18 -69 -18 -140zM340 1190l342 285l104 -107l-370 -254 z" />
<glyph unicode="&#xf4;" horiz-adv-x="1097" d="M94 494q0 92 28 187q26 89 85 163q55 70 142 114q85 43 200 43q113 0 199 -44q85 -43 142 -115q56 -71 85 -164t29 -189q0 -95 -29 -188t-85 -164q-57 -72 -142 -115q-88 -45 -199 -45q-114 0 -199 43q-83 44 -141 118q-57 72 -86 166q-29 95 -29 190zM236 1176l258 294 h98l258 -294l-90 -62l-217 229l-215 -229zM250 494q0 -75 18 -144t56 -125q40 -54 95 -87q56 -34 130 -34q76 0 132 34q57 34 94 88q38 55 56 124q19 73 19 142q0 68 -19 141q-18 69 -56 124q-38 54 -94 87q-57 33 -132 33t-132 -33q-54 -32 -93 -87q-38 -55 -56 -123 q-18 -69 -18 -140z" />
<glyph unicode="&#xf5;" horiz-adv-x="1097" d="M94 494q0 92 28 187q26 89 85 163q55 70 142 114q85 43 200 43q113 0 199 -44q85 -43 142 -115q56 -71 85 -164t29 -189q0 -95 -29 -188t-85 -164q-57 -72 -142 -115q-88 -45 -199 -45q-114 0 -199 43q-83 44 -141 118q-57 72 -86 166q-29 95 -29 190zM186 1212 q29 94 85 148q56 55 128 55q46 0 88 -23l84 -49q9 -6 47 -28q29 -17 58 -17q31 0 61 27q33 29 60 94l100 -49q-33 -95 -88 -147q-57 -54 -127 -54q-38 0 -76 18q-37 18 -71 40q-23 12 -60 36q-36 23 -69 23q-35 0 -63 -28t-56 -93zM250 494q0 -75 18 -144t56 -125 q40 -54 95 -87q56 -34 130 -34q76 0 132 34q57 34 94 88q38 55 56 124q19 73 19 142q0 68 -19 141q-18 69 -56 124q-38 54 -94 87q-57 33 -132 33t-132 -33q-54 -32 -93 -87q-38 -55 -56 -123q-18 -69 -18 -140z" />
<glyph unicode="&#xf6;" horiz-adv-x="1097" d="M94 494q0 92 28 187q26 89 85 163q55 70 142 114q85 43 200 43q113 0 199 -44q85 -43 142 -115q56 -71 85 -164t29 -189q0 -95 -29 -188t-85 -164q-57 -72 -142 -115q-88 -45 -199 -45q-114 0 -199 43q-83 44 -141 118q-57 72 -86 166q-29 95 -29 190zM250 494 q0 -75 18 -144t56 -125q40 -54 95 -87q56 -34 130 -34q76 0 132 34q57 34 94 88q38 55 56 124q19 73 19 142q0 68 -19 141q-18 69 -56 124q-38 54 -94 87q-57 33 -132 33t-132 -33q-54 -32 -93 -87q-38 -55 -56 -123q-18 -69 -18 -140zM279 1323q0 48 29 80q30 33 73 33 q41 0 71 -33q29 -32 29 -80t-29 -81q-30 -34 -71 -34q-43 0 -73 34q-29 33 -29 81zM633 1323q0 47 30 80t70 33q43 0 73 -33t30 -80t-30 -81t-73 -34q-40 0 -70 34t-30 81z" />
<glyph unicode="&#xf7;" d="M70 608v144h966v-144h-966zM440 315q0 52 32 89q32 36 79 36t79 -36q32 -37 32 -89q0 -50 -32 -87q-31 -35 -79 -35t-79 35q-32 37 -32 87zM440 1061q0 52 32 89q32 36 79 36t79 -36q32 -37 32 -89q0 -50 -32 -87q-32 -36 -79 -36t-79 36q-32 37 -32 87z" />
<glyph unicode="&#xf8;" horiz-adv-x="1097" d="M94 494q0 92 28 187q26 89 85 163q55 70 142 114q85 43 200 43q56 0 101 -11q55 -13 95 -32l97 164l100 -59l-100 -170q81 -75 121 -180q41 -108 41 -224q0 -95 -29 -188t-85 -164q-57 -72 -142 -115q-88 -45 -199 -45q-59 0 -113 14q-52 13 -96 36l-98 -166l-101 65 l103 176q-71 73 -111 178q-39 104 -39 214zM250 494q0 -72 19 -138t53 -120l356 608q-24 13 -61 23q-38 10 -68 10q-75 0 -132 -33q-54 -32 -93 -87q-38 -55 -56 -123q-18 -69 -18 -140zM408 143q23 -13 64 -27q36 -12 77 -12q76 0 132 34q57 34 94 88q38 55 56 124 q19 73 19 142q0 70 -22 145q-21 73 -60 125z" />
<glyph unicode="&#xf9;" horiz-adv-x="1101" d="M135 358v619h158v-627q0 -129 59 -187q61 -59 176 -59q75 0 151 32q75 31 122 77v764h160v-977h-146l-10 76q-60 -45 -129 -72t-174 -27q-193 0 -280 95q-87 94 -87 286zM279 1368l104 107l342 -285l-74 -76z" />
<glyph unicode="&#xfa;" horiz-adv-x="1101" d="M135 358v619h158v-627q0 -129 59 -187q61 -59 176 -59q75 0 151 32q75 31 122 77v764h160v-977h-146l-10 76q-60 -45 -129 -72t-174 -27q-193 0 -280 95q-87 94 -87 286zM369 1190l342 285l104 -107l-371 -254z" />
<glyph unicode="&#xfb;" horiz-adv-x="1101" d="M135 358v619h158v-627q0 -129 59 -187q61 -59 176 -59q75 0 151 32q75 31 122 77v764h160v-977h-146l-10 76q-60 -45 -129 -72t-174 -27q-193 0 -280 95q-87 94 -87 286zM252 1176l258 294h98l258 -294l-90 -62l-217 229l-215 -229z" />
<glyph unicode="&#xfc;" horiz-adv-x="1101" d="M135 358v619h158v-627q0 -129 59 -187q61 -59 176 -59q75 0 151 32q75 31 122 77v764h160v-977h-146l-10 76q-60 -45 -129 -72t-174 -27q-193 0 -280 95q-87 94 -87 286zM279 1323q0 48 29 80q30 33 73 33q41 0 71 -33q29 -32 29 -80t-29 -81q-30 -34 -71 -34 q-43 0 -73 34q-29 33 -29 81zM633 1323q0 47 30 80t70 33q43 0 73 -33t30 -80t-30 -81t-73 -34q-40 0 -70 34t-30 81z" />
<glyph unicode="&#xfd;" horiz-adv-x="927" d="M0 977h180l289 -752l289 752h170l-500 -1235q-38 -90 -103 -123q-66 -33 -139 -33q-45 0 -99 14q-56 14 -81 25l45 117q23 -8 57 -15q37 -8 68 -8q46 0 74 23q27 22 55 88l80 195zM285 1190l342 285l104 -107l-371 -254z" />
<glyph unicode="&#xfe;" horiz-adv-x="1075" d="M141 -387v1753h156v-459q56 44 131 69t154 25q108 0 184 -40q74 -39 124 -111q48 -69 69 -161q22 -96 22 -189q0 -120 -37 -215q-38 -98 -101 -165q-63 -68 -155 -106q-89 -37 -194 -37q-120 0 -193 33v-397h-160zM301 147q20 -15 66 -29q45 -14 96 -14q78 0 144 27 q68 28 115 76q48 49 75 122q26 69 26 165q0 72 -14 136q-16 72 -47 123q-32 53 -87 88q-52 33 -134 33q-66 0 -128 -28q-60 -27 -112 -76v-623z" />
<glyph unicode="&#xff;" horiz-adv-x="927" d="M0 977h180l289 -752l289 752h170l-500 -1235q-38 -90 -103 -123q-66 -33 -139 -33q-45 0 -99 14q-56 14 -81 25l45 117q23 -8 57 -15q37 -8 68 -8q46 0 74 23q27 22 55 88l80 195zM205 1323q0 48 29 80q30 33 73 33q41 0 71 -33t30 -80t-30 -81t-71 -34q-43 0 -73 34 q-29 33 -29 81zM559 1323q0 47 30 80t70 33q43 0 73 -33t30 -80t-30 -81t-73 -34q-40 0 -70 34t-30 81z" />
<glyph unicode="&#x152;" horiz-adv-x="1792" d="M100 702q0 319 191 492q190 172 538 172h865v-141h-594v-439h413v-141h-413v-504h641v-141h-912q-174 0 -309 48q-136 48 -228 139t-142 222q-50 132 -50 293zM272 694q0 -271 150 -412t414 -141h98v1084h-107q-264 0 -409 -133q-146 -134 -146 -398z" />
<glyph unicode="&#x153;" horiz-adv-x="1699" d="M94 494q0 92 25 187q24 90 77 163q51 70 135 114q82 43 197 43q70 0 124 -15t97 -41q42 -25 72 -60q31 -35 53 -74q45 75 127 134q78 56 205 56q109 0 186 -38q79 -39 129 -107t74 -160q25 -95 25 -198h-672q0 -85 19 -161q19 -75 55 -124q38 -52 94 -80q58 -29 137 -29 q87 0 145 41q56 40 91 107l110 -59q-52 -98 -143 -157t-207 -59q-141 0 -233 55q-89 53 -139 140q-52 -84 -140 -140q-87 -55 -211 -55q-109 0 -194 45q-80 42 -134 116q-52 71 -78 166t-26 190zM250 494q0 -75 15 -144q15 -70 48 -125q33 -52 86 -87q52 -34 127 -34 q76 0 128 34q51 34 86 88q35 55 50 124t15 142q0 72 -15 141t-50 124t-86 87q-52 33 -128 33t-128 -33q-52 -32 -85 -87q-33 -54 -48 -123t-15 -140zM948 623h494q-6 127 -74 191q-68 63 -162 63t-168 -66t-90 -188z" />
<glyph unicode="&#x178;" horiz-adv-x="1112" d="M0 1366h186l365 -553l383 553h178l-483 -709v-657h-164v655zM285 1663q0 48 29 80q30 33 73 33q41 0 71 -33q29 -32 29 -80t-29 -81q-30 -34 -71 -34q-43 0 -73 34q-29 33 -29 81zM639 1663q0 47 30 80t70 33q43 0 73 -33t30 -80t-30 -81t-73 -34q-40 0 -70 34t-30 81z " />
<glyph unicode="&#x2c6;" horiz-adv-x="905" d="M145 1176l258 294h99l258 -294l-90 -62l-217 229l-215 -229z" />
<glyph unicode="&#x2dc;" horiz-adv-x="905" d="M98 1212q29 94 85 148q56 55 128 55q46 0 88 -23l84 -49q9 -6 47 -28q29 -17 58 -17q31 0 61 27q33 29 60 94l100 -49q-33 -95 -88 -147q-57 -54 -127 -54q-38 0 -76 18q-40 19 -72 40q-17 9 -59 36q-36 23 -70 23t-62 -28t-56 -93z" />
<glyph unicode="&#x2000;" horiz-adv-x="907" />
<glyph unicode="&#x2001;" horiz-adv-x="1815" />
<glyph unicode="&#x2002;" horiz-adv-x="907" />
<glyph unicode="&#x2003;" horiz-adv-x="1815" />
<glyph unicode="&#x2004;" horiz-adv-x="605" />
<glyph unicode="&#x2005;" horiz-adv-x="453" />
<glyph unicode="&#x2006;" horiz-adv-x="302" />
<glyph unicode="&#x2007;" horiz-adv-x="302" />
<glyph unicode="&#x2008;" horiz-adv-x="226" />
<glyph unicode="&#x2009;" horiz-adv-x="363" />
<glyph unicode="&#x200a;" horiz-adv-x="100" />
<glyph unicode="&#x2010;" horiz-adv-x="628" d="M92 461v145h445v-145h-445z" />
<glyph unicode="&#x2011;" horiz-adv-x="628" d="M92 461v145h445v-145h-445z" />
<glyph unicode="&#x2012;" horiz-adv-x="628" d="M92 461v145h445v-145h-445z" />
<glyph unicode="&#x2013;" horiz-adv-x="1132" d="M0 463v147h1133v-147h-1133z" />
<glyph unicode="&#x2014;" horiz-adv-x="2265" d="M0 463v147h2265v-147h-2265z" />
<glyph unicode="&#x2018;" horiz-adv-x="393" d="M86 1241q0 58 29 98q29 39 84 39q54 0 81 -39t27 -92q0 -57 -23 -87q-25 -32 -44 -42q21 -34 64 -64q40 -28 81 -44l-25 -66q-46 17 -97 47q-47 28 -88 66t-64 83q-25 48 -25 101z" />
<glyph unicode="&#x2019;" horiz-adv-x="393" d="M8 1010q41 16 81 44q45 31 65 64q-19 10 -44 42q-24 32 -24 87q0 52 28 92q27 39 81 39q55 0 84 -39q28 -38 28 -98q0 -55 -24 -101q-23 -44 -65 -83q-41 -38 -88 -66q-51 -30 -97 -47z" />
<glyph unicode="&#x201a;" horiz-adv-x="393" d="M8 -78q38 15 81 45t65 66q-19 10 -44 42q-24 31 -24 87q0 52 28 91q27 38 81 38q55 0 84 -39q28 -38 28 -98q0 -53 -24 -100q-24 -46 -65 -84t-88 -66q-51 -30 -97 -47z" />
<glyph unicode="&#x201c;" horiz-adv-x="776" d="M86 1241q0 58 29 98q29 39 84 39q54 0 81 -39t27 -92q0 -57 -23 -87q-25 -32 -44 -42q21 -34 64 -64q40 -28 81 -44l-25 -66q-46 17 -97 47q-47 28 -88 66t-64 83q-25 48 -25 101zM469 1241q0 59 30 98t85 39q54 0 81 -39t27 -92q0 -55 -24 -87q-23 -30 -43 -42 q22 -35 63 -64t80 -44l-25 -66q-46 17 -97 47q-47 28 -88 66t-64 83q-25 48 -25 101z" />
<glyph unicode="&#x201d;" horiz-adv-x="776" d="M8 1010q41 16 81 44q45 31 65 64q-19 10 -44 42q-24 32 -24 87q0 52 28 92q27 39 81 39q55 0 84 -39q28 -38 28 -98q0 -55 -24 -101q-23 -44 -65 -83q-41 -38 -88 -66q-51 -30 -97 -47zM391 1010q41 16 82 44q43 30 64 64q-20 12 -43 42q-25 33 -25 87q0 52 28 92 q27 39 81 39q56 0 84 -39q28 -38 28 -98q0 -55 -24 -101q-22 -43 -64 -83q-39 -37 -87 -66q-51 -30 -97 -47z" />
<glyph unicode="&#x201e;" horiz-adv-x="776" d="M8 -78q38 15 81 45t65 66q-19 10 -44 42q-24 31 -24 87q0 52 28 91q27 38 81 38q55 0 84 -39q28 -38 28 -98q0 -53 -24 -100q-24 -46 -65 -84t-88 -66q-51 -30 -97 -47zM391 -78q38 15 82 45q41 28 64 66q-20 12 -43 42q-25 33 -25 87q0 52 28 91q27 38 81 38 q56 0 84 -39q28 -38 28 -98q0 -53 -24 -100q-23 -45 -64 -84q-39 -38 -87 -66q-51 -30 -97 -47z" />
<glyph unicode="&#x2022;" horiz-adv-x="997" d="M102 793q0 80 31 154q30 72 84 126q53 53 126 85t157 32q80 0 153 -32q70 -31 126 -85q55 -53 85 -126q31 -74 31 -154t-31 -154q-29 -70 -85 -126t-126 -85q-74 -31 -153 -31q-80 0 -156 31q-70 29 -125 84q-54 54 -85 125q-32 73 -32 156z" />
<glyph unicode="&#x2026;" horiz-adv-x="1136" d="M78 100q0 50 32 87q32 36 78 36q47 0 79 -36q32 -37 32 -87t-32 -87q-32 -36 -79 -36q-46 0 -78 36q-32 37 -32 87zM459 100q0 52 31 87q32 36 79 36q45 0 77 -36q32 -37 32 -87t-32 -87q-32 -36 -77 -36q-47 0 -79 36q-31 35 -31 87zM838 100q0 52 31 87q31 36 79 36 q45 0 78 -36t33 -87t-33 -87t-78 -36q-48 0 -79 36q-31 35 -31 87z" />
<glyph unicode="&#x202f;" horiz-adv-x="363" />
<glyph unicode="&#x2039;" horiz-adv-x="612" d="M31 512l397 418l107 -80l-297 -328l325 -321l-98 -90z" />
<glyph unicode="&#x203a;" horiz-adv-x="612" d="M49 201l326 321l-297 328l106 80l398 -418l-435 -401z" />
<glyph unicode="&#x205f;" horiz-adv-x="453" />
<glyph unicode="&#x20ac;" d="M25 440v140h163q-2 30 -2 43v43v49q0 17 2 47h-163v141h176q67 475 438 475q85 0 143 -17q64 -19 108 -50q45 -32 79 -80q30 -42 59 -107l-149 -63q-30 70 -85 120t-155 50q-123 0 -184 -81q-61 -80 -82 -247h334v-141h-347q0 -30 -1 -46t-1 -50q0 -29 1 -43t1 -43h347 v-140h-332q28 -172 99 -244q71 -73 183 -73q103 0 155 48q50 46 95 134l125 -80q-30 -58 -59 -99q-32 -45 -77 -79q-44 -33 -102 -51q-62 -19 -139 -19q-183 0 -302 110q-117 108 -152 353h-176z" />
<glyph unicode="&#x2122;" horiz-adv-x="1269" d="M39 1264v102h440v-102h-164v-486h-112v486h-164zM573 778v588h115l184 -410l172 410h113v-588h-115v365l-153 -369h-33l-168 371v-367h-115z" />
<glyph unicode="&#x25fc;" horiz-adv-x="972" d="M0 0v973h973v-973h-973z" />
</font>
</defs>
</svg>
